<svg width="67" height="63" viewBox="0 0 67 63" fill="none" xmlns="http://www.w3.org/2000/svg">
<path d="M5.69479 0V33.8156L16.8983 38.0718V34.713C13.7467 34.2645 10.5872 33.5094 8.14135 30.9707L10.0319 29.1671C11.7335 30.933 14.0977 31.5737 16.7933 32.0074L13.1258 1.6771C10.6952 1.21635 8.20129 0.710989 5.69479 0ZM61.3097 0.00418212C52.1819 2.42879 41.9341 0.0184027 34.5305 9.87633V38.9867C37.3027 34.9229 40.8945 33.2896 44.4344 32.5C49.1839 31.4401 53.7025 31.5014 57.2484 28.6487L58.8939 30.6743C54.5167 34.1962 49.3359 34.0739 45.0075 35.0397C40.9049 35.9551 37.4482 37.4975 34.8893 43.8486L61.3096 33.8157L61.3097 0.00418212ZM15.6681 0.875492L19.5063 32.6828L19.5147 32.7612V63L22.3072 57.524L25.1736 62.8432V35.3841L21.2353 2.02144L15.6681 0.875492ZM24.1366 4.25617L27.7207 34.6171C28.3198 34.9443 28.8907 35.3203 29.4276 35.7411C30.3312 36.4517 31.1658 37.3248 31.9134 38.3857V9.27073C29.7433 6.83455 27.0957 5.32168 24.1366 4.25617ZM0.5 4.37411V37.8063L16.8984 43.8051V41.03L3.11714 35.9895V4.37411H0.5ZM63.883 4.37829V35.9894L33.5022 47.0989L27.7912 45.012V50.3486C31.0416 51.468 35.9247 51.2984 39.87 49.9959V47.5474L66.5 37.8062V4.37843L63.883 4.37829ZM27.7909 37.7713V42.2064L31.6511 43.6744C30.6652 40.7681 29.3312 38.9818 27.8085 37.7843C27.8029 37.7801 27.7966 37.7758 27.7909 37.7713Z" fill="white"/>
<path d="M52.9412 16.3548C52.7056 16.0445 52.4187 15.7757 52.1523 15.5068C51.4657 14.8863 50.687 14.4417 50.0312 13.7902C48.5045 12.2804 48.1663 9.78812 49.1398 7.875C48.1663 8.11285 47.3159 8.65059 46.5884 9.24004C43.9345 11.391 42.8894 15.1862 44.1394 18.4437C44.1804 18.5471 44.2214 18.6505 44.2214 18.785C44.2214 19.0125 44.0677 19.2193 43.8628 19.302C43.6271 19.4054 43.3812 19.3434 43.1865 19.1779C43.128 19.1291 43.0793 19.0694 43.0431 19.0021C41.8852 17.5233 41.7008 15.4034 42.4795 13.7074C40.7683 15.1138 39.8359 17.4923 39.9691 19.7364C40.0306 20.2534 40.092 20.7705 40.2662 21.2875C40.4097 21.908 40.6863 22.5285 40.9937 23.0766C42.1004 24.8656 44.0165 26.1479 46.076 26.4064C48.2688 26.6856 50.6153 26.2823 52.2957 24.7518C54.1708 23.0352 54.8266 20.2844 53.8634 17.9267L53.7302 17.6578C53.515 17.1821 52.9412 16.3548 52.9412 16.3548ZM49.7033 22.8697C49.4164 23.1179 48.9451 23.3868 48.5762 23.4902C47.4286 23.9039 46.281 23.3248 45.6047 22.6422C46.824 22.3527 47.5515 21.4427 47.7667 20.5223C47.9409 19.695 47.613 19.0125 47.4798 18.2162C47.3569 17.451 47.3773 16.7995 47.654 16.0859C47.8487 16.4789 48.0536 16.8718 48.2995 17.1821C49.0885 18.2162 50.3284 18.6712 50.5948 20.0776C50.6358 20.2224 50.6563 20.3672 50.6563 20.5223C50.687 21.3703 50.3181 22.301 49.7033 22.8697Z" fill="#810EA7"/>
</svg>
