<svg width="32" height="30" viewBox="0 0 32 30" fill="none" xmlns="http://www.w3.org/2000/svg">
<path d="M2.51868 0V16.1027L7.95069 18.1294V16.53C6.42266 16.3164 4.89077 15.9569 3.7049 14.7479L4.62155 13.8891C5.44653 14.73 6.59282 15.0351 7.89976 15.2416L6.1216 0.798617C4.94312 0.579213 3.73396 0.338566 2.51868 0ZM29.4835 0.00199148C25.0579 1.15657 20.0892 0.00876331 16.4996 4.70301V18.5651C17.8437 16.63 19.5852 15.8522 21.3015 15.4762C23.6043 14.9715 25.7952 15.0007 27.5144 13.6422L28.3122 14.6068C26.1899 16.2839 23.678 16.2257 21.5794 16.6856C19.5902 17.1215 17.9143 17.856 16.6736 20.8803L29.4834 16.1027L29.4835 0.00199148ZM7.35425 0.416901L9.21519 15.5632L9.21926 15.6006V30L10.5732 27.3924L11.963 29.9253V16.8496L10.0535 0.96259L7.35425 0.416901ZM11.4602 2.02675L13.1979 16.4843C13.4884 16.6401 13.7652 16.8192 14.0255 17.0196C14.4636 17.3579 14.8683 17.7737 15.2307 18.2789V4.41463C14.1785 3.25455 12.8949 2.53413 11.4602 2.02675ZM0 2.08291V18.003L7.95076 20.8596V19.5381L1.26892 17.1379V2.08291H0ZM30.7311 2.0849V17.1378L16.0011 22.4281L13.2321 21.4343V23.9755C14.808 24.5086 17.1756 24.4278 19.0885 23.8076V22.6416L32 18.0029V2.08497L30.7311 2.0849ZM13.232 17.9863V20.0983L15.1035 20.7973C14.6255 19.4134 13.9788 18.5628 13.2405 17.9925C13.2378 17.9905 13.2347 17.9885 13.232 17.9863Z" fill="#810EA7"/>
<path d="M25.335 8.10012C25.22 7.95011 25.08 7.82011 24.95 7.6901C24.6151 7.3901 24.2352 7.17509 23.9152 6.86008C23.1704 6.13006 23.0054 4.92503 23.4803 4C23.0054 4.115 22.5905 4.37501 22.2355 4.66002C20.9408 5.70005 20.4309 7.5351 21.0408 9.11015C21.0608 9.16015 21.0807 9.21015 21.0807 9.27515C21.0807 9.38515 21.0058 9.48516 20.9058 9.52516C20.7908 9.57516 20.6708 9.54516 20.5758 9.46516C20.5473 9.44155 20.5235 9.4127 20.5059 9.38015C19.941 8.66513 19.851 7.6401 20.2309 6.82008C19.3961 7.5001 18.9411 8.65013 19.0061 9.73516C19.0361 9.98517 19.0661 10.2352 19.1511 10.4852C19.2211 10.7852 19.3561 11.0852 19.506 11.3502C20.0459 12.2152 20.9808 12.8353 21.9856 12.9603C23.0554 13.0953 24.2002 12.9003 25.02 12.1602C25.9349 11.3302 26.2548 10.0002 25.7849 8.86014L25.7199 8.73013C25.6149 8.50013 25.335 8.10012 25.335 8.10012ZM23.7553 11.2502C23.6153 11.3702 23.3853 11.5002 23.2054 11.5502C22.6455 11.7502 22.0856 11.4702 21.7556 11.1402C22.3505 11.0002 22.7055 10.5602 22.8104 10.1152C22.8954 9.71516 22.7354 9.38515 22.6705 9.00014C22.6105 8.63013 22.6205 8.31512 22.7554 7.97011C22.8504 8.16012 22.9504 8.35012 23.0704 8.50013C23.4553 9.00014 24.0602 9.22015 24.1902 9.90017C24.2102 9.97017 24.2202 10.0402 24.2202 10.1152C24.2352 10.5252 24.0552 10.9752 23.7553 11.2502Z" fill="white"/>
</svg>
