<svg width="103" height="98" viewBox="0 0 103 98" fill="none" xmlns="http://www.w3.org/2000/svg">
<path d="M16.784 6.72L14.016 18H10.16L8.608 11.088L7.024 18H3.168L0.432 6.72H3.824L5.136 14.432L6.912 6.72H10.352L12.08 14.368L13.392 6.72H16.784ZM17.6028 13.504C17.6028 12.576 17.7681 11.7653 18.0988 11.072C18.4401 10.3787 18.8988 9.84533 19.4748 9.472C20.0614 9.09867 20.7121 8.912 21.4268 8.912C22.0454 8.912 22.5788 9.03467 23.0268 9.28C23.4748 9.52533 23.8214 9.856 24.0668 10.272V9.024H27.2028V18H24.0668V16.752C23.8214 17.168 23.4694 17.4987 23.0108 17.744C22.5628 17.9893 22.0348 18.112 21.4268 18.112C20.7121 18.112 20.0614 17.9253 19.4748 17.552C18.8988 17.1787 18.4401 16.6453 18.0988 15.952C17.7681 15.248 17.6028 14.432 17.6028 13.504ZM24.0668 13.504C24.0668 12.928 23.9068 12.4747 23.5868 12.144C23.2774 11.8133 22.8934 11.648 22.4348 11.648C21.9654 11.648 21.5761 11.8133 21.2668 12.144C20.9574 12.464 20.8028 12.9173 20.8028 13.504C20.8028 14.08 20.9574 14.5387 21.2668 14.88C21.5761 15.2107 21.9654 15.376 22.4348 15.376C22.8934 15.376 23.2774 15.2107 23.5868 14.88C23.9068 14.5493 24.0668 14.0907 24.0668 13.504ZM32.1258 10.608C32.4778 10.096 32.9044 9.69067 33.4058 9.392C33.9071 9.09333 34.4458 8.944 35.0218 8.944V12.288H34.1418C33.4591 12.288 32.9524 12.4213 32.6218 12.688C32.2911 12.9547 32.1258 13.4187 32.1258 14.08V18H28.9898V9.024H32.1258V10.608ZM47.874 8.944C49.0047 8.944 49.89 9.28533 50.53 9.968C51.1807 10.6507 51.506 11.584 51.506 12.768V18H48.37V13.184C48.37 12.704 48.2367 12.3307 47.97 12.064C47.7033 11.7973 47.3407 11.664 46.882 11.664C46.4233 11.664 46.0607 11.7973 45.794 12.064C45.5273 12.3307 45.394 12.704 45.394 13.184V18H42.258V13.184C42.258 12.704 42.1247 12.3307 41.858 12.064C41.602 11.7973 41.2447 11.664 40.786 11.664C40.3167 11.664 39.9487 11.7973 39.682 12.064C39.4153 12.3307 39.282 12.704 39.282 13.184V18H36.146V9.024H39.282V10.208C39.5593 9.824 39.9167 9.52 40.354 9.296C40.802 9.06133 41.314 8.944 41.89 8.944C42.5513 8.944 43.138 9.088 43.65 9.376C44.1727 9.664 44.5833 10.0693 44.882 10.592C45.202 10.1013 45.6233 9.70667 46.146 9.408C46.6687 9.09867 47.2447 8.944 47.874 8.944ZM60.4241 12.208C61.0855 12.3573 61.6081 12.688 61.9921 13.2C62.3868 13.7013 62.5841 14.2773 62.5841 14.928C62.5841 15.888 62.2535 16.64 61.5921 17.184C60.9308 17.728 60.0028 18 58.8081 18H53.2241V6.72H58.6321C59.7841 6.72 60.6855 6.976 61.3361 7.488C61.9975 8 62.3281 8.72 62.3281 9.648C62.3281 10.3093 62.1521 10.864 61.8001 11.312C61.4588 11.7493 61.0001 12.048 60.4241 12.208ZM56.3601 11.2H57.9441C58.7335 11.2 59.1281 10.8747 59.1281 10.224C59.1281 9.552 58.7335 9.216 57.9441 9.216H56.3601V11.2ZM58.1841 15.472C58.9735 15.472 59.3681 15.1413 59.3681 14.48C59.3681 14.1387 59.2615 13.8773 59.0481 13.696C58.8455 13.5147 58.5521 13.424 58.1681 13.424H56.3601V15.472H58.1841ZM68.1345 18.112C67.2385 18.112 66.4332 17.9253 65.7185 17.552C65.0145 17.1787 64.4598 16.6453 64.0545 15.952C63.6492 15.2587 63.4465 14.4427 63.4465 13.504C63.4465 12.576 63.6492 11.7653 64.0545 11.072C64.4705 10.3787 65.0305 9.84533 65.7345 9.472C66.4492 9.09867 67.2545 8.912 68.1505 8.912C69.0465 8.912 69.8465 9.09867 70.5505 9.472C71.2652 9.84533 71.8252 10.3787 72.2305 11.072C72.6465 11.7653 72.8545 12.576 72.8545 13.504C72.8545 14.432 72.6465 15.248 72.2305 15.952C71.8252 16.6453 71.2652 17.1787 70.5505 17.552C69.8358 17.9253 69.0305 18.112 68.1345 18.112ZM68.1345 15.392C68.5718 15.392 68.9345 15.232 69.2225 14.912C69.5212 14.5813 69.6705 14.112 69.6705 13.504C69.6705 12.896 69.5212 12.432 69.2225 12.112C68.9345 11.792 68.5772 11.632 68.1505 11.632C67.7238 11.632 67.3665 11.792 67.0785 12.112C66.7905 12.432 66.6465 12.896 66.6465 13.504C66.6465 14.1227 66.7852 14.592 67.0625 14.912C67.3398 15.232 67.6972 15.392 68.1345 15.392ZM78.3064 18.112C77.4104 18.112 76.605 17.9253 75.8904 17.552C75.1864 17.1787 74.6317 16.6453 74.2264 15.952C73.821 15.2587 73.6184 14.4427 73.6184 13.504C73.6184 12.576 73.821 11.7653 74.2264 11.072C74.6424 10.3787 75.2024 9.84533 75.9064 9.472C76.621 9.09867 77.4264 8.912 78.3224 8.912C79.2184 8.912 80.0184 9.09867 80.7224 9.472C81.437 9.84533 81.997 10.3787 82.4024 11.072C82.8184 11.7653 83.0264 12.576 83.0264 13.504C83.0264 14.432 82.8184 15.248 82.4024 15.952C81.997 16.6453 81.437 17.1787 80.7224 17.552C80.0077 17.9253 79.2024 18.112 78.3064 18.112ZM78.3064 15.392C78.7437 15.392 79.1064 15.232 79.3944 14.912C79.693 14.5813 79.8424 14.112 79.8424 13.504C79.8424 12.896 79.693 12.432 79.3944 12.112C79.1064 11.792 78.749 11.632 78.3224 11.632C77.8957 11.632 77.5384 11.792 77.2504 12.112C76.9624 12.432 76.8184 12.896 76.8184 13.504C76.8184 14.1227 76.957 14.592 77.2344 14.912C77.5117 15.232 77.869 15.392 78.3064 15.392ZM89.9183 18L87.4383 14.32V18H84.3023V6.16H87.4383V12.544L89.9183 9.024H93.6783L90.1423 13.536L93.7423 18H89.9183ZM98.4856 18.112C97.675 18.112 96.9496 17.9787 96.3096 17.712C95.6803 17.4347 95.179 17.0613 94.8056 16.592C94.443 16.112 94.2403 15.5733 94.1976 14.976H97.2376C97.2803 15.264 97.4136 15.488 97.6376 15.648C97.8616 15.808 98.139 15.888 98.4696 15.888C98.7256 15.888 98.9283 15.8347 99.0776 15.728C99.227 15.6213 99.3016 15.4827 99.3016 15.312C99.3016 15.088 99.179 14.9227 98.9336 14.816C98.6883 14.7093 98.283 14.592 97.7176 14.464C97.0776 14.336 96.5443 14.192 96.1176 14.032C95.691 13.872 95.3176 13.6107 94.9976 13.248C94.6883 12.8853 94.5336 12.3947 94.5336 11.776C94.5336 11.2427 94.6776 10.7627 94.9656 10.336C95.2536 9.89867 95.675 9.552 96.2296 9.296C96.795 9.04 97.4723 8.912 98.2616 8.912C99.435 8.912 100.358 9.2 101.03 9.776C101.702 10.352 102.091 11.1093 102.198 12.048H99.3656C99.3123 11.76 99.1843 11.5413 98.9816 11.392C98.7896 11.232 98.5283 11.152 98.1976 11.152C97.9416 11.152 97.7443 11.2 97.6056 11.296C97.4776 11.392 97.4136 11.5253 97.4136 11.696C97.4136 11.9093 97.5363 12.0747 97.7816 12.192C98.027 12.2987 98.4216 12.4107 98.9656 12.528C99.6163 12.6667 100.155 12.8213 100.582 12.992C101.019 13.1627 101.398 13.44 101.718 13.824C102.048 14.1973 102.214 14.7093 102.214 15.36C102.214 15.8827 102.059 16.352 101.75 16.768C101.451 17.184 101.019 17.5147 100.454 17.76C99.899 17.9947 99.243 18.112 98.4856 18.112Z" fill="#810EA7"/>
<path d="M16.784 6.72L18.7264 7.19664L19.3341 4.72H16.784V6.72ZM14.016 18V20H15.5846L15.9584 18.4766L14.016 18ZM10.16 18L8.20859 18.4382L8.55928 20H10.16V18ZM8.608 11.088L10.5594 10.6498L6.65854 10.6412L8.608 11.088ZM7.024 18V20H8.61751L8.97346 18.4468L7.024 18ZM3.168 18L1.22436 18.4714L1.59512 20H3.168V18ZM0.432 6.72V4.72H-2.1111L-1.51164 7.19144L0.432 6.72ZM3.824 6.72L5.79567 6.38457L5.51249 4.72H3.824V6.72ZM5.136 14.432L3.16433 14.7674L7.08499 14.8808L5.136 14.432ZM6.912 6.72V4.72H5.32023L4.96301 6.27117L6.912 6.72ZM10.352 6.72L12.3028 6.27923L11.9505 4.72H10.352V6.72ZM12.08 14.368L10.1292 14.8088L14.0512 14.7062L12.08 14.368ZM13.392 6.72V4.72H11.7059L11.4208 6.38184L13.392 6.72ZM14.8416 6.24336L12.0736 17.5234L15.9584 18.4766L18.7264 7.19664L14.8416 6.24336ZM14.016 16H10.16V20H14.016V16ZM12.1114 17.5618L10.5594 10.6498L6.65659 11.5262L8.20859 18.4382L12.1114 17.5618ZM6.65854 10.6412L5.07454 17.5532L8.97346 18.4468L10.5575 11.5348L6.65854 10.6412ZM7.024 16H3.168V20H7.024V16ZM5.11164 17.5286L2.37564 6.24856L-1.51164 7.19144L1.22436 18.4714L5.11164 17.5286ZM0.432 8.72H3.824V4.72H0.432V8.72ZM1.85233 7.05543L3.16433 14.7674L7.10767 14.0966L5.79567 6.38457L1.85233 7.05543ZM7.08499 14.8808L8.86099 7.16883L4.96301 6.27117L3.18701 13.9832L7.08499 14.8808ZM6.912 8.72H10.352V4.72H6.912V8.72ZM8.40117 7.16077L10.1292 14.8088L14.0308 13.9272L12.3028 6.27923L8.40117 7.16077ZM14.0512 14.7062L15.3632 7.05816L11.4208 6.38184L10.1088 14.0298L14.0512 14.7062ZM13.392 8.72H16.784V4.72H13.392V8.72ZM18.0987 11.072L16.3044 10.1886L16.2989 10.1998L16.2935 10.2111L18.0987 11.072ZM19.4748 9.472L18.401 7.78468L18.394 7.78916L18.387 7.79369L19.4748 9.472ZM23.0268 9.28L22.0661 11.0342H22.0661L23.0268 9.28ZM24.0667 10.272L22.344 11.288L26.0667 17.6004V10.272H24.0667ZM24.0667 9.024V7.024H22.0667V9.024H24.0667ZM27.2028 9.024H29.2028V7.024H27.2028V9.024ZM27.2028 18V20H29.2028V18H27.2028ZM24.0667 18H22.0667V20H24.0667V18ZM24.0667 16.752H26.0667V9.42357L22.344 15.736L24.0667 16.752ZM23.0107 17.744L22.0674 15.9804L22.0588 15.9851L22.0501 15.9898L23.0107 17.744ZM19.4748 17.552L18.387 19.2303L18.394 19.2348L18.401 19.2393L19.4748 17.552ZM18.0987 15.952L16.2885 16.8023L16.2963 16.8189L16.3044 16.8354L18.0987 15.952ZM23.5868 12.144L22.1262 13.5103L22.1378 13.5227L22.1495 13.5348L23.5868 12.144ZM21.2668 12.144L22.7047 13.534L22.7161 13.5223L22.7273 13.5103L21.2668 12.144ZM21.2668 14.88L19.7848 16.223L19.7954 16.2348L19.8062 16.2463L21.2668 14.88ZM23.5868 14.88L22.1495 13.4892L22.1378 13.5013L22.1262 13.5137L23.5868 14.88ZM19.6028 13.504C19.6028 12.8129 19.7254 12.3073 19.904 11.9329L16.2935 10.2111C15.8107 11.2234 15.6027 12.3391 15.6027 13.504H19.6028ZM19.8931 11.9554C20.0955 11.5442 20.3263 11.3034 20.5625 11.1503L18.387 7.79369C17.4712 8.38722 16.7847 9.21313 16.3044 10.1886L19.8931 11.9554ZM20.5485 11.1593C20.805 10.9961 21.0813 10.912 21.4268 10.912V6.912C20.3429 6.912 19.3178 7.20123 18.401 7.78468L20.5485 11.1593ZM21.4268 10.912C21.7801 10.912 21.9688 10.9809 22.0661 11.0342L23.9874 7.52581C23.1887 7.08844 22.3107 6.912 21.4268 6.912V10.912ZM22.0661 11.0342C22.2172 11.1169 22.2923 11.2003 22.344 11.288L25.7895 9.25603C25.3505 8.51174 24.7323 7.93374 23.9874 7.52581L22.0661 11.0342ZM26.0667 10.272V9.024H22.0667V10.272H26.0667ZM24.0667 11.024H27.2028V7.024H24.0667V11.024ZM25.2028 9.024V18H29.2028V9.024H25.2028ZM27.2028 16H24.0667V20H27.2028V16ZM26.0667 18V16.752H22.0667V18H26.0667ZM22.344 15.736C22.2994 15.8117 22.2285 15.8943 22.0674 15.9804L23.9541 19.5076C24.7103 19.1031 25.3435 18.5243 25.7895 17.768L22.344 15.736ZM22.0501 15.9898C21.948 16.0458 21.7628 16.112 21.4268 16.112V20.112C22.3067 20.112 23.1775 19.9329 23.9714 19.4982L22.0501 15.9898ZM21.4268 16.112C21.0813 16.112 20.805 16.0279 20.5485 15.8647L18.401 19.2393C19.3178 19.8228 20.3429 20.112 21.4268 20.112V16.112ZM20.5625 15.8737C20.3263 15.7206 20.0955 15.4798 19.8931 15.0686L16.3044 16.8354C16.7847 17.8109 17.4712 18.6368 18.387 19.2303L20.5625 15.8737ZM19.909 15.1017C19.7251 14.7102 19.6028 14.1941 19.6028 13.504H15.6027C15.6027 14.6699 15.8111 15.7858 16.2885 16.8023L19.909 15.1017ZM26.0667 13.504C26.0667 12.5462 25.7903 11.545 25.024 10.7532L22.1495 13.5348C22.1277 13.5123 22.1077 13.4865 22.091 13.4593C22.0746 13.4324 22.0653 13.4104 22.0608 13.3976C22.052 13.3729 22.0667 13.3991 22.0667 13.504H26.0667ZM25.0473 10.7777C24.3543 10.0369 23.4388 9.648 22.4347 9.648V13.648C22.4187 13.648 22.357 13.6439 22.2758 13.609C22.1941 13.5738 22.1441 13.5294 22.1262 13.5103L25.0473 10.7777ZM22.4347 9.648C21.4347 9.648 20.509 10.0264 19.8062 10.7777L22.7273 13.5103C22.7049 13.5342 22.6525 13.5789 22.5725 13.6129C22.4941 13.6462 22.4392 13.648 22.4347 13.648V9.648ZM19.8288 10.754C19.0558 11.5536 18.8027 12.5689 18.8027 13.504H22.8027C22.8027 13.3828 22.8191 13.3478 22.8116 13.3698C22.8075 13.3819 22.7977 13.4063 22.7787 13.438C22.7595 13.4701 22.7346 13.5032 22.7047 13.534L19.8288 10.754ZM18.8027 13.504C18.8027 14.4471 19.0643 15.4281 19.7848 16.223L22.7487 13.537C22.7662 13.5562 22.7816 13.5774 22.7938 13.5986C22.8059 13.6195 22.8118 13.6348 22.8139 13.6409C22.8178 13.6524 22.8027 13.6148 22.8027 13.504H18.8027ZM19.8062 16.2463C20.509 16.9976 21.4347 17.376 22.4347 17.376V13.376C22.4392 13.376 22.4941 13.3778 22.5725 13.4111C22.6525 13.4451 22.7049 13.4898 22.7273 13.5137L19.8062 16.2463ZM22.4347 17.376C23.4388 17.376 24.3543 16.9871 25.0473 16.2463L22.1262 13.5137C22.1441 13.4946 22.1941 13.4502 22.2758 13.415C22.357 13.3801 22.4187 13.376 22.4347 13.376V17.376ZM25.024 16.2708C25.7968 15.4723 26.0667 14.4607 26.0667 13.504H22.0667C22.0667 13.6182 22.0509 13.6505 22.0583 13.6293C22.0623 13.618 22.0712 13.5963 22.0879 13.5688C22.1048 13.541 22.1258 13.5137 22.1495 13.4892L25.024 16.2708ZM32.1258 10.608H30.1257V17.0474L33.7738 11.7411L32.1258 10.608ZM35.0218 8.944H37.0218V6.944H35.0218V8.944ZM35.0218 12.288V14.288H37.0218V12.288H35.0218ZM32.6217 12.688L33.8773 14.2448V14.2448L32.6217 12.688ZM32.1258 18V20H34.1258V18H32.1258ZM28.9897 18H26.9897V20H28.9897V18ZM28.9897 9.024V7.024H26.9897V9.024H28.9897ZM32.1258 9.024H34.1258V7.024H32.1258V9.024ZM33.7738 11.7411C33.9731 11.4512 34.1918 11.2517 34.4294 11.1102L32.3821 7.6738C31.617 8.12961 30.9824 8.74081 30.4777 9.47494L33.7738 11.7411ZM34.4294 11.1102C34.6254 10.9934 34.8111 10.944 35.0218 10.944V6.944C34.0804 6.944 33.1888 7.19324 32.3821 7.6738L34.4294 11.1102ZM33.0218 8.944V12.288H37.0218V8.944H33.0218ZM35.0218 10.288H34.1418V14.288H35.0218V10.288ZM34.1418 10.288C33.2608 10.288 32.2119 10.4492 31.3662 11.1312L33.8773 14.2448C33.7782 14.3247 33.7161 14.3334 33.7587 14.3221C33.8046 14.3101 33.9234 14.288 34.1418 14.288V10.288ZM31.3662 11.1312C30.3523 11.9489 30.1257 13.1533 30.1257 14.08H34.1258C34.1258 13.9047 34.1491 13.8641 34.1337 13.9073C34.1246 13.9329 34.103 13.9842 34.0595 14.0483C34.015 14.1139 33.9543 14.1827 33.8773 14.2448L31.3662 11.1312ZM30.1257 14.08V18H34.1258V14.08H30.1257ZM32.1258 16H28.9897V20H32.1258V16ZM30.9897 18V9.024H26.9897V18H30.9897ZM28.9897 11.024H32.1258V7.024H28.9897V11.024ZM30.1257 9.024V10.608H34.1258V9.024H30.1257ZM50.53 9.968L49.0709 11.3359L49.0766 11.3419L49.0823 11.3479L50.53 9.968ZM51.506 18V20H53.506V18H51.506ZM48.37 18H46.37V20H48.37V18ZM47.97 12.064L46.5558 13.4782V13.4782L47.97 12.064ZM45.794 12.064L47.2082 13.4782V13.4782L45.794 12.064ZM45.394 18V20H47.394V18H45.394ZM42.258 18H40.258V20H42.258V18ZM41.858 12.064L40.4152 13.4491L40.4294 13.4638L40.4438 13.4782L41.858 12.064ZM39.282 18V20H41.282V18H39.282ZM36.146 18H34.146V20H36.146V18ZM36.146 9.024V7.024H34.146V9.024H36.146ZM39.282 9.024H41.282V7.024H39.282V9.024ZM39.282 10.208H37.282V16.3932L40.9034 11.379L39.282 10.208ZM40.354 9.296L41.2658 11.0761L41.2739 11.0719L41.282 11.0677L40.354 9.296ZM43.65 9.376L42.6695 11.1192L42.6771 11.1234L42.6848 11.1277L43.65 9.376ZM44.882 10.592L43.1455 11.5843L44.7693 14.426L46.5572 11.6845L44.882 10.592ZM46.146 9.408L47.1383 11.1445L47.1515 11.1369L47.1646 11.1292L46.146 9.408ZM47.874 10.944C48.5761 10.944 48.8864 11.139 49.0709 11.3359L51.9891 8.60012C50.8937 7.43166 49.4332 6.944 47.874 6.944V10.944ZM49.0823 11.3479C49.2938 11.5698 49.506 11.9604 49.506 12.768H53.506C53.506 11.2076 53.0676 9.73156 51.9777 8.58812L49.0823 11.3479ZM49.506 12.768V18H53.506V12.768H49.506ZM51.506 16H48.37V20H51.506V16ZM50.37 18V13.184H46.37V18H50.37ZM50.37 13.184C50.37 12.3255 50.1212 11.3868 49.3842 10.6498L46.5558 13.4782C46.469 13.3914 46.4142 13.2943 46.3865 13.2167C46.3618 13.1474 46.37 13.1264 46.37 13.184H50.37ZM49.3842 10.6498C48.6641 9.92965 47.7489 9.664 46.882 9.664V13.664C46.9188 13.664 46.8846 13.6694 46.8079 13.6412C46.724 13.6103 46.6325 13.555 46.5558 13.4782L49.3842 10.6498ZM46.882 9.664C46.0151 9.664 45.0999 9.92965 44.3798 10.6498L47.2082 13.4782C47.1315 13.555 47.04 13.6103 46.9561 13.6412C46.8794 13.6694 46.8452 13.664 46.882 13.664V9.664ZM44.3798 10.6498C43.6428 11.3868 43.394 12.3255 43.394 13.184H47.394C47.394 13.1264 47.4022 13.1474 47.3775 13.2167C47.3498 13.2943 47.295 13.3914 47.2082 13.4782L44.3798 10.6498ZM43.394 13.184V18H47.394V13.184H43.394ZM45.394 16H42.258V20H45.394V16ZM44.258 18V13.184H40.258V18H44.258ZM44.258 13.184C44.258 12.3255 44.0092 11.3868 43.2722 10.6498L40.4438 13.4782C40.357 13.3914 40.3022 13.2943 40.2745 13.2167C40.2498 13.1474 40.258 13.1264 40.258 13.184H44.258ZM43.3008 10.6789C42.5807 9.92887 41.6495 9.664 40.786 9.664V13.664C40.8237 13.664 40.784 13.6696 40.6988 13.6378C40.6053 13.6029 40.5019 13.5394 40.4152 13.4491L43.3008 10.6789ZM40.786 9.664C39.9234 9.664 38.9965 9.92105 38.2678 10.6498L41.0962 13.4782C41.0144 13.56 40.9201 13.6151 40.8393 13.6444C40.7662 13.6708 40.7387 13.664 40.786 13.664V9.664ZM38.2678 10.6498C37.5308 11.3868 37.282 12.3255 37.282 13.184H41.282C41.282 13.1264 41.2902 13.1474 41.2655 13.2167C41.2378 13.2943 41.183 13.3914 41.0962 13.4782L38.2678 10.6498ZM37.282 13.184V18H41.282V13.184H37.282ZM39.282 16H36.146V20H39.282V16ZM38.146 18V9.024H34.146V18H38.146ZM36.146 11.024H39.282V7.024H36.146V11.024ZM37.282 9.024V10.208H41.282V9.024H37.282ZM40.9034 11.379C40.9886 11.2609 41.0989 11.1615 41.2658 11.0761L39.4422 7.51591C38.7344 7.87846 38.1301 8.38705 37.6606 9.03702L40.9034 11.379ZM41.282 11.0677C41.4061 11.0027 41.5919 10.944 41.89 10.944V6.944C41.0361 6.944 40.1979 7.11998 39.426 7.52434L41.282 11.0677ZM41.89 10.944C42.2518 10.944 42.493 11.0199 42.6695 11.1192L44.6305 7.63285C43.783 7.15613 42.8508 6.944 41.89 6.944V10.944ZM42.6848 11.1277C42.8825 11.2366 43.0276 11.3779 43.1455 11.5843L46.6185 9.59972C46.1391 8.76079 45.4628 8.09139 44.6152 7.62432L42.6848 11.1277ZM46.5572 11.6845C46.699 11.4672 46.8832 11.2902 47.1383 11.1445L45.1537 7.67151C44.3634 8.12311 43.705 8.7355 43.2068 9.49946L46.5572 11.6845ZM47.1646 11.1292C47.3674 11.0092 47.5895 10.944 47.874 10.944V6.944C46.8998 6.944 45.9699 7.18818 45.1274 7.68685L47.1646 11.1292ZM60.4241 12.208L59.8888 10.281L59.9836 14.1589L60.4241 12.208ZM61.9921 13.2L60.3921 14.4L60.4062 14.4187L60.4207 14.4371L61.9921 13.2ZM61.5921 17.184L62.8627 18.7286V18.7286L61.5921 17.184ZM53.2241 18H51.2241V20H53.2241V18ZM53.2241 6.72V4.72H51.2241V6.72H53.2241ZM61.3361 7.488L60.0993 9.05974L60.1055 9.06462L60.1118 9.06945L61.3361 7.488ZM61.8001 11.312L60.2275 10.0764L60.2235 10.0815L61.8001 11.312ZM56.3601 11.2H54.3601V13.2H56.3601V11.2ZM56.3601 9.216V7.216H54.3601V9.216H56.3601ZM59.0481 13.696L57.7145 15.1865L57.7335 15.2034L57.7528 15.2199L59.0481 13.696ZM56.3601 13.424V11.424H54.3601V13.424H56.3601ZM56.3601 15.472H54.3601V17.472H56.3601V15.472ZM59.9836 14.1589C60.2113 14.2103 60.311 14.2918 60.3921 14.4L63.5921 12C62.9053 11.0842 61.9596 10.5044 60.8646 10.2571L59.9836 14.1589ZM60.4207 14.4371C60.5318 14.5783 60.5841 14.7165 60.5841 14.928H64.5841C64.5841 13.8382 64.2418 12.8243 63.5636 11.9629L60.4207 14.4371ZM60.5841 14.928C60.5841 15.3717 60.4614 15.5244 60.3216 15.6394L62.8627 18.7286C64.0455 17.7556 64.5841 16.4043 64.5841 14.928H60.5841ZM60.3216 15.6394C60.1367 15.7915 59.7203 16 58.8081 16V20C60.2853 20 61.7249 19.6645 62.8627 18.7286L60.3216 15.6394ZM58.8081 16H53.2241V20H58.8081V16ZM55.2241 18V6.72H51.2241V18H55.2241ZM53.2241 8.72H58.6321V4.72H53.2241V8.72ZM58.6321 8.72C59.5082 8.72 59.9165 8.91583 60.0993 9.05974L62.5729 5.91626C61.4545 5.03617 60.06 4.72 58.6321 4.72V8.72ZM60.1118 9.06945C60.2256 9.15756 60.3281 9.26115 60.3281 9.648H64.3281C64.3281 8.17885 63.7693 6.84244 62.5605 5.90655L60.1118 9.06945ZM60.3281 9.648C60.3281 9.93649 60.2594 10.0357 60.2275 10.0764L63.3728 12.5476C64.0448 11.6923 64.3281 10.6822 64.3281 9.648H60.3281ZM60.2235 10.0815C60.1666 10.1543 60.086 10.2262 59.8888 10.281L60.9594 14.135C61.9142 13.8698 62.751 13.3443 63.3768 12.5425L60.2235 10.0815ZM56.3601 13.2H57.9441V9.2H56.3601V13.2ZM57.9441 13.2C58.5632 13.2 59.3994 13.0803 60.1043 12.4993C60.8831 11.8572 61.1281 10.9704 61.1281 10.224H57.1281C57.1281 10.1884 57.1332 10.0665 57.2 9.90124C57.2717 9.72377 57.3939 9.54965 57.56 9.41274C57.8702 9.15703 58.1143 9.2 57.9441 9.2V13.2ZM61.1281 10.224C61.1281 9.48798 60.8969 8.59919 60.1286 7.94514C59.422 7.34355 58.5754 7.216 57.9441 7.216V11.216C58.1021 11.216 57.8476 11.2564 57.5356 10.9909C57.3719 10.8514 57.2572 10.6793 57.1918 10.5122C57.1311 10.3572 57.1281 10.2473 57.1281 10.224H61.1281ZM57.9441 7.216H56.3601V11.216H57.9441V7.216ZM54.3601 9.216V11.2H58.3601V9.216H54.3601ZM58.1841 17.472C58.8093 17.472 59.6507 17.3484 60.3566 16.757C61.1302 16.1089 61.3681 15.221 61.3681 14.48H57.3681C57.3681 14.4506 57.3721 14.3347 57.4358 14.1747C57.5043 14.0024 57.6227 13.8292 57.7877 13.691C58.0989 13.4302 58.3483 13.472 58.1841 13.472V17.472ZM61.3681 14.48C61.3681 13.6925 61.1009 12.816 60.3434 12.1721L57.7528 15.2199C57.6131 15.1011 57.5033 14.9475 57.4364 14.7838C57.3736 14.63 57.3681 14.5156 57.3681 14.48H61.3681ZM60.3817 12.2055C59.6856 11.5827 58.8424 11.424 58.1681 11.424V15.424C58.2618 15.424 58.0053 15.4467 57.7145 15.1865L60.3817 12.2055ZM58.1681 11.424H56.3601V15.424H58.1681V11.424ZM54.3601 13.424V15.472H58.3601V13.424H54.3601ZM56.3601 17.472H58.1841V13.472H56.3601V17.472ZM65.7185 17.552L64.7815 19.319L64.7925 19.3247L65.7185 17.552ZM64.0545 15.952L65.7811 14.9426H65.7811L64.0545 15.952ZM64.0545 11.072L62.3395 10.043L62.3337 10.0528L62.3279 10.0626L64.0545 11.072ZM65.7345 9.472L64.8084 7.69927L64.7975 7.70508L65.7345 9.472ZM70.5505 9.472L69.6135 11.239L69.6245 11.2447L70.5505 9.472ZM72.2305 11.072L70.5039 12.0814L70.5097 12.0912L70.5155 12.101L72.2305 11.072ZM72.2305 15.952L70.5086 14.9345L70.5039 14.9426L72.2305 15.952ZM70.5505 17.552L69.6245 15.7793L70.5505 17.552ZM69.2225 14.912L67.7383 13.5714L67.7359 13.5741L69.2225 14.912ZM69.2225 12.112L67.7359 13.4499L67.748 13.4634L67.7604 13.4766L69.2225 12.112ZM67.0625 14.912L65.5511 16.2219L67.0625 14.912ZM68.1345 16.112C67.5245 16.112 67.0427 15.9873 66.6445 15.7793L64.7925 19.3247C65.8236 19.8634 66.9525 20.112 68.1345 20.112V16.112ZM66.6555 15.7851C66.2827 15.5874 66.0003 15.3176 65.7811 14.9426L62.3279 16.9614C62.9193 17.9731 63.7463 18.7699 64.7815 19.3189L66.6555 15.7851ZM65.7811 14.9426C65.583 14.6038 65.4465 14.1484 65.4465 13.504H61.4465C61.4465 14.7369 61.7153 15.9135 62.3279 16.9614L65.7811 14.9426ZM65.4465 13.504C65.4465 12.8748 65.5811 12.4236 65.7811 12.0814L62.3279 10.0626C61.7173 11.1071 61.4465 12.2772 61.4465 13.504H65.4465ZM65.7695 12.101C66.0011 11.715 66.2941 11.4391 66.6715 11.2389L64.7975 7.70508C63.7669 8.25161 62.9399 9.0423 62.3395 10.043L65.7695 12.101ZM66.6605 11.2447C67.0587 11.0367 67.5405 10.912 68.1505 10.912V6.912C66.9685 6.912 65.8396 7.16064 64.8085 7.6993L66.6605 11.2447ZM68.1505 10.912C68.761 10.912 69.2324 11.0368 69.6135 11.2389L71.4875 7.70507C70.4606 7.16049 69.332 6.912 68.1505 6.912V10.912ZM69.6245 11.2447C70.0072 11.4446 70.2892 11.7141 70.5039 12.0814L73.9571 10.0626C73.3612 9.04328 72.5231 8.24602 71.4765 7.6993L69.6245 11.2447ZM70.5155 12.101C70.7188 12.4399 70.8545 12.884 70.8545 13.504H74.8545C74.8545 12.268 74.5742 11.0908 73.9455 10.043L70.5155 12.101ZM70.8545 13.504C70.8545 14.1233 70.719 14.5785 70.5086 14.9345L73.9524 16.9695C74.574 15.9175 74.8545 14.7407 74.8545 13.504H70.8545ZM70.5039 14.9426C70.2892 15.3099 70.0072 15.5794 69.6245 15.7793L71.4765 19.3247C72.5231 18.778 73.3612 17.9807 73.9571 16.9614L70.5039 14.9426ZM69.6245 15.7793C69.2263 15.9873 68.7445 16.112 68.1345 16.112V20.112C69.3165 20.112 70.4454 19.8634 71.4765 19.3247L69.6245 15.7793ZM68.1345 17.392C69.1286 17.392 70.035 16.9989 70.7091 16.2499L67.7359 13.5741C67.7646 13.5422 67.8283 13.4858 67.9272 13.4422C68.0254 13.3988 68.1041 13.392 68.1345 13.392V17.392ZM70.7067 16.2526C71.442 15.4385 71.6705 14.4251 71.6705 13.504H67.6705C67.6705 13.6485 67.6523 13.7067 67.6526 13.7056C67.6533 13.7037 67.6588 13.687 67.6735 13.6608C67.6884 13.6341 67.7099 13.6029 67.7383 13.5714L70.7067 16.2526ZM71.6705 13.504C71.6705 12.5879 71.444 11.561 70.6846 10.7474L67.7604 13.4766C67.7262 13.44 67.7003 13.4034 67.682 13.3713C67.664 13.3398 67.6565 13.3183 67.6547 13.3127C67.653 13.3077 67.6572 13.3189 67.6616 13.3509C67.6661 13.3832 67.6705 13.4332 67.6705 13.504H71.6705ZM70.7091 10.7741C70.0457 10.037 69.15 9.632 68.1505 9.632V13.632C68.1077 13.632 68.022 13.6225 67.9212 13.5774C67.8208 13.5324 67.7598 13.4765 67.7359 13.4499L70.7091 10.7741ZM68.1505 9.632C67.151 9.632 66.2553 10.037 65.5919 10.7741L68.5651 13.4499C68.5412 13.4765 68.4802 13.5324 68.3798 13.5774C68.279 13.6225 68.1933 13.632 68.1505 13.632V9.632ZM65.5919 10.7741C64.859 11.5884 64.6465 12.6048 64.6465 13.504H68.6465C68.6465 13.4303 68.6509 13.377 68.6557 13.3413C68.6605 13.3057 68.6652 13.291 68.6646 13.2928C68.6639 13.2951 68.6577 13.3142 68.6412 13.3442C68.6243 13.3749 68.5994 13.4118 68.5651 13.4499L65.5919 10.7741ZM64.6465 13.504C64.6465 14.3869 64.8409 15.4023 65.5511 16.2219L68.5739 13.6021C68.6099 13.6437 68.6343 13.6822 68.6498 13.7115C68.6649 13.7402 68.6694 13.7562 68.6685 13.7533C68.6676 13.7501 68.6618 13.7294 68.6564 13.6871C68.6511 13.6448 68.6465 13.5846 68.6465 13.504H64.6465ZM65.5511 16.2219C66.2224 16.9964 67.1389 17.392 68.1345 17.392V13.392C68.1644 13.392 68.2488 13.3987 68.3558 13.4466C68.4645 13.4953 68.5374 13.56 68.5739 13.6021L65.5511 16.2219ZM75.8904 17.552L74.9534 19.319L74.9643 19.3247L75.8904 17.552ZM74.2264 15.952L75.953 14.9426H75.953L74.2264 15.952ZM74.2264 11.072L72.5114 10.043L72.5055 10.0528L72.4998 10.0626L74.2264 11.072ZM75.9064 9.472L74.9803 7.69927L74.9694 7.70508L75.9064 9.472ZM80.7224 9.472L79.7854 11.239L79.7963 11.2447L80.7224 9.472ZM82.4024 11.072L80.6758 12.0814L80.6815 12.0912L80.6874 12.101L82.4024 11.072ZM82.4024 15.952L80.6805 14.9345L80.6758 14.9426L82.4024 15.952ZM80.7224 17.552L79.7963 15.7793L80.7224 17.552ZM79.3944 14.912L77.9102 13.5714L77.9078 13.5741L79.3944 14.912ZM79.3944 12.112L77.9078 13.4499L77.9199 13.4634L77.9323 13.4766L79.3944 12.112ZM77.2344 14.912L75.723 16.2219L77.2344 14.912ZM78.3064 16.112C77.6964 16.112 77.2146 15.9873 76.8164 15.7793L74.9643 19.3247C75.9955 19.8634 77.1243 20.112 78.3064 20.112V16.112ZM76.8274 15.7851C76.4546 15.5874 76.1722 15.3176 75.953 14.9426L72.4998 16.9614C73.0912 17.9731 73.9182 18.7699 74.9534 19.3189L76.8274 15.7851ZM75.953 14.9426C75.7549 14.6038 75.6184 14.1484 75.6184 13.504H71.6184C71.6184 14.7369 71.8872 15.9135 72.4998 16.9614L75.953 14.9426ZM75.6184 13.504C75.6184 12.8748 75.7529 12.4236 75.953 12.0814L72.4998 10.0626C71.8891 11.1071 71.6184 12.2772 71.6184 13.504H75.6184ZM75.9414 12.101C76.1729 11.715 76.466 11.4391 76.8434 11.2389L74.9694 7.70508C73.9388 8.25161 73.1118 9.0423 72.5114 10.043L75.9414 12.101ZM76.8324 11.2447C77.2306 11.0367 77.7124 10.912 78.3224 10.912V6.912C77.1403 6.912 76.0115 7.16064 74.9803 7.6993L76.8324 11.2447ZM78.3224 10.912C78.9329 10.912 79.4043 11.0368 79.7854 11.2389L81.6594 7.70507C80.6324 7.16049 79.5039 6.912 78.3224 6.912V10.912ZM79.7963 11.2447C80.1791 11.4446 80.461 11.7141 80.6758 12.0814L84.129 10.0626C83.5331 9.04328 82.695 8.24602 81.6484 7.6993L79.7963 11.2447ZM80.6874 12.101C80.8907 12.4399 81.0264 12.884 81.0264 13.504H85.0264C85.0264 12.268 84.746 11.0908 84.1174 10.043L80.6874 12.101ZM81.0264 13.504C81.0264 14.1233 80.8909 14.5785 80.6805 14.9345L84.1242 16.9695C84.7458 15.9175 85.0264 14.7407 85.0264 13.504H81.0264ZM80.6758 14.9426C80.461 15.3099 80.1791 15.5794 79.7963 15.7793L81.6484 19.3247C82.695 18.778 83.5331 17.9807 84.129 16.9614L80.6758 14.9426ZM79.7963 15.7793C79.3982 15.9873 78.9163 16.112 78.3064 16.112V20.112C79.4884 20.112 80.6173 19.8634 81.6484 19.3247L79.7963 15.7793ZM78.3064 17.392C79.3004 17.392 80.2069 16.9989 80.881 16.2499L77.9078 13.5741C77.9364 13.5422 78.0001 13.4858 78.0991 13.4422C78.1973 13.3988 78.2759 13.392 78.3064 13.392V17.392ZM80.8786 16.2526C81.6139 15.4385 81.8424 14.4251 81.8424 13.504H77.8424C77.8424 13.6485 77.8242 13.7067 77.8245 13.7056C77.8251 13.7037 77.8307 13.687 77.8454 13.6608C77.8603 13.6341 77.8817 13.6029 77.9102 13.5714L80.8786 16.2526ZM81.8424 13.504C81.8424 12.5879 81.6159 11.561 80.8565 10.7474L77.9323 13.4766C77.8981 13.44 77.8722 13.4034 77.8539 13.3713C77.8359 13.3398 77.8283 13.3183 77.8265 13.3127C77.8249 13.3077 77.829 13.3189 77.8335 13.3509C77.838 13.3832 77.8424 13.4332 77.8424 13.504H81.8424ZM80.881 10.7741C80.2176 10.037 79.3218 9.632 78.3224 9.632V13.632C78.2796 13.632 78.1938 13.6225 78.093 13.5774C77.9927 13.5324 77.9317 13.4765 77.9078 13.4499L80.881 10.7741ZM78.3224 9.632C77.3229 9.632 76.4272 10.037 75.7638 10.7741L78.737 13.4499C78.7131 13.4765 78.6521 13.5324 78.5517 13.5774C78.4509 13.6225 78.3652 13.632 78.3224 13.632V9.632ZM75.7638 10.7741C75.0309 11.5884 74.8184 12.6048 74.8184 13.504H78.8184C78.8184 13.4303 78.8228 13.377 78.8276 13.3413C78.8324 13.3057 78.8371 13.291 78.8365 13.2928C78.8358 13.2951 78.8296 13.3142 78.813 13.3442C78.7962 13.3749 78.7713 13.4118 78.737 13.4499L75.7638 10.7741ZM74.8184 13.504C74.8184 14.3869 75.0127 15.4023 75.723 16.2219L78.7458 13.6021C78.7817 13.6437 78.8062 13.6822 78.8217 13.7115C78.8368 13.7402 78.8413 13.7562 78.8404 13.7533C78.8394 13.7501 78.8337 13.7294 78.8283 13.6871C78.8229 13.6448 78.8184 13.5846 78.8184 13.504H74.8184ZM75.723 16.2219C76.3942 16.9964 77.3108 17.392 78.3064 17.392V13.392C78.3363 13.392 78.4207 13.3987 78.5277 13.4466C78.6364 13.4953 78.7092 13.56 78.7458 13.6021L75.723 16.2219ZM89.9183 18L88.2597 19.1177L88.8543 20H89.9183V18ZM87.4382 14.32L89.0968 13.2023L85.4382 7.7735V14.32H87.4382ZM87.4382 18V20H89.4382V18H87.4382ZM84.3023 18H82.3023V20H84.3023V18ZM84.3023 6.16V4.16H82.3023V6.16H84.3023ZM87.4382 6.16H89.4382V4.16H87.4382V6.16ZM87.4382 12.544H85.4382V18.8552L89.0732 13.6959L87.4382 12.544ZM89.9183 9.024V7.024H88.8808L88.2833 7.87209L89.9183 9.024ZM93.6783 9.024L95.2524 10.2577L97.7866 7.024H93.6783V9.024ZM90.1423 13.536L88.5681 12.3023L87.5873 13.5538L88.5854 14.7915L90.1423 13.536ZM93.7422 18V20H97.9245L95.2991 16.7445L93.7422 18ZM91.5768 16.8823L89.0968 13.2023L85.7797 15.4377L88.2597 19.1177L91.5768 16.8823ZM85.4382 14.32V18H89.4382V14.32H85.4382ZM87.4382 16H84.3023V20H87.4382V16ZM86.3023 18V6.16H82.3023V18H86.3023ZM84.3023 8.16H87.4382V4.16H84.3023V8.16ZM85.4382 6.16V12.544H89.4382V6.16H85.4382ZM89.0732 13.6959L91.5532 10.1759L88.2833 7.87209L85.8033 11.3921L89.0732 13.6959ZM89.9183 11.024H93.6783V7.024H89.9183V11.024ZM92.1041 7.79033L88.5681 12.3023L91.7164 14.7697L95.2524 10.2577L92.1041 7.79033ZM88.5854 14.7915L92.1854 19.2555L95.2991 16.7445L91.6991 12.2805L88.5854 14.7915ZM93.7422 16H89.9183V20H93.7422V16ZM96.3096 17.712L95.5031 19.5422L95.5217 19.5504L95.5404 19.5582L96.3096 17.712ZM94.8056 16.592L93.2099 17.7977L93.2249 17.8175L93.2404 17.837L94.8056 16.592ZM94.1976 14.976V12.976H92.0497L92.2027 15.1185L94.1976 14.976ZM97.2376 14.976L99.216 14.6829L98.9632 12.976H97.2376V14.976ZM98.9336 14.816L99.7311 12.9819V12.9819L98.9336 14.816ZM97.7176 14.464L98.1593 12.5134L98.1346 12.5078L98.1099 12.5028L97.7176 14.464ZM96.1176 14.032L95.4154 15.9047L96.1176 14.032ZM94.9976 13.248L93.476 14.5459L93.4868 14.5587L93.4979 14.5712L94.9976 13.248ZM94.9656 10.336L96.6233 11.4549L96.6297 11.4455L96.636 11.436L94.9656 10.336ZM96.2296 9.296L95.4046 7.47409L95.398 7.47706L95.3915 7.48008L96.2296 9.296ZM101.03 9.776L99.728 11.2945V11.2945L101.03 9.776ZM102.198 12.048V14.048H104.438L104.185 11.8222L102.198 12.048ZM99.3656 12.048L97.3991 12.4122L97.702 14.048H99.3656V12.048ZM98.9816 11.392L97.7013 12.9284L97.7471 12.9667L97.7952 13.0021L98.9816 11.392ZM97.6056 11.296L96.4672 9.65162L96.436 9.67322L96.4056 9.696L97.6056 11.296ZM97.7816 12.192L96.9187 13.9963L96.9512 14.0118L96.9842 14.0261L97.7816 12.192ZM98.9656 12.528L98.5439 14.483L98.5488 14.4841L98.9656 12.528ZM100.582 12.992L99.8388 14.849L99.8467 14.8521L99.8545 14.8552L100.582 12.992ZM101.718 13.824L100.181 15.1044L100.2 15.1275L100.22 15.1501L101.718 13.824ZM101.75 16.768L100.145 15.5746L100.135 15.588L100.125 15.6016L101.75 16.768ZM100.454 17.76L101.233 19.6019L101.241 19.5984L101.25 19.5947L100.454 17.76ZM98.4856 16.112C97.8949 16.112 97.4375 16.0153 97.0789 15.8658L95.5404 19.5582C96.4618 19.9421 97.455 20.112 98.4856 20.112V16.112ZM97.1161 15.8818C96.7395 15.7159 96.5146 15.5276 96.3708 15.347L93.2404 17.837C93.8434 18.595 94.621 19.1535 95.5031 19.5422L97.1161 15.8818ZM96.4014 15.3863C96.2705 15.2132 96.2075 15.0434 96.1925 14.8335L92.2027 15.1185C92.273 16.1032 92.6154 17.0108 93.2099 17.7977L96.4014 15.3863ZM94.1976 16.976H97.2376V12.976H94.1976V16.976ZM95.2592 15.2691C95.3763 16.0596 95.7817 16.7801 96.4752 17.2755L98.8001 14.0205C98.9005 14.0922 99.0055 14.198 99.0882 14.337C99.1696 14.4738 99.2036 14.5991 99.216 14.6829L95.2592 15.2691ZM96.4752 17.2755C97.102 17.7232 97.8079 17.888 98.4696 17.888V13.888C98.4651 13.888 98.5024 13.8875 98.5679 13.9064C98.6365 13.9261 98.7187 13.9624 98.8001 14.0205L96.4752 17.2755ZM98.4696 17.888C98.9825 17.888 99.6412 17.7832 100.24 17.3555L97.9151 14.1005C98.2154 13.8861 98.4687 13.888 98.4696 13.888V17.888ZM100.24 17.3555C100.869 16.9065 101.302 16.1835 101.302 15.312H97.3016C97.3016 15.0947 97.3522 14.8419 97.4847 14.5958C97.6144 14.3548 97.782 14.1956 97.9151 14.1005L100.24 17.3555ZM101.302 15.312C101.302 14.8108 101.156 14.2864 100.816 13.8283C100.492 13.3923 100.081 13.1341 99.7311 12.9819L98.1362 16.6501C98.0314 16.6046 97.8043 16.4824 97.6034 16.2117C97.3862 15.9189 97.3016 15.5892 97.3016 15.312H101.302ZM99.7311 12.9819C99.3017 12.7952 98.7395 12.6447 98.1593 12.5134L97.276 16.4146C97.5333 16.4729 97.7357 16.5246 97.8895 16.5691C97.9658 16.5912 98.0247 16.61 98.0686 16.6251C98.0902 16.6325 98.1067 16.6386 98.1185 16.6431C98.1243 16.6453 98.1287 16.6471 98.1318 16.6483C98.1348 16.6495 98.1362 16.6502 98.1362 16.6501L99.7311 12.9819ZM98.1099 12.5028C97.5344 12.3877 97.113 12.2692 96.8199 12.1593L95.4154 15.9047C95.9756 16.1148 96.6209 16.2843 97.3254 16.4252L98.1099 12.5028ZM96.8199 12.1593C96.7188 12.1215 96.6142 12.0573 96.4973 11.9248L93.4979 14.5712C94.021 15.1641 94.6631 15.6225 95.4154 15.9047L96.8199 12.1593ZM96.5193 11.9501C96.5338 11.9671 96.5446 11.9836 96.5517 11.9966C96.5586 12.0093 96.5594 12.014 96.5571 12.0067C96.552 11.9907 96.5336 11.9213 96.5336 11.776H92.5336C92.5336 12.726 92.7756 13.7248 93.476 14.5459L96.5193 11.9501ZM96.5336 11.776C96.5336 11.6262 96.5668 11.5387 96.6233 11.4549L93.3079 9.21705C92.7885 9.98665 92.5336 10.8591 92.5336 11.776H96.5336ZM96.636 11.436C96.6866 11.3591 96.7945 11.2381 97.0677 11.1119L95.3915 7.48008C94.5555 7.86595 93.8207 8.43822 93.2953 9.23602L96.636 11.436ZM97.0546 11.1179C97.3004 11.0066 97.6822 10.912 98.2616 10.912V6.912C97.2624 6.912 96.2895 7.07339 95.4046 7.47409L97.0546 11.1179ZM98.2616 10.912C99.1149 10.912 99.5224 11.1182 99.728 11.2945L102.331 8.25749C101.193 7.28175 99.755 6.912 98.2616 6.912V10.912ZM99.728 11.2945C99.989 11.5182 100.157 11.8001 100.21 12.2738L104.185 11.8222C104.025 10.4185 103.414 9.1858 102.331 8.25749L99.728 11.2945ZM102.198 10.048H99.3656V14.048H102.198V10.048ZM101.332 11.6838C101.203 10.9839 100.846 10.2813 100.168 9.78189L97.7952 13.0021C97.6764 12.9145 97.576 12.802 97.5036 12.6784C97.4339 12.5593 97.4081 12.461 97.3991 12.4122L101.332 11.6838ZM100.262 9.85556C99.6086 9.31108 98.8437 9.152 98.1976 9.152V13.152C98.2129 13.152 97.9706 13.1529 97.7013 12.9284L100.262 9.85556ZM98.1976 9.152C97.7324 9.152 97.0725 9.23257 96.4672 9.65162L98.744 12.9404C98.5751 13.0573 98.4226 13.1089 98.3303 13.1313C98.2403 13.1532 98.1896 13.152 98.1976 13.152V9.152ZM96.4056 9.696C95.7362 10.1981 95.4136 10.9447 95.4136 11.696H99.4136C99.4136 11.8642 99.3809 12.0914 99.2647 12.3335C99.1464 12.5799 98.9772 12.7673 98.8056 12.896L96.4056 9.696ZM95.4136 11.696C95.4136 12.9043 96.2074 13.6561 96.9187 13.9963L98.6445 10.3877C98.725 10.4262 98.9267 10.5388 99.1118 10.7883C99.316 11.0635 99.4136 11.3901 99.4136 11.696H95.4136ZM96.9842 14.0261C97.4209 14.216 97.978 14.361 98.544 14.483L99.3873 10.573C99.1435 10.5204 98.9524 10.473 98.8076 10.432C98.7359 10.4116 98.6809 10.3943 98.6403 10.3804C98.6202 10.3736 98.6051 10.3681 98.5944 10.364C98.5837 10.3599 98.5788 10.3578 98.5791 10.3579L96.9842 14.0261ZM98.5488 14.4841C99.1328 14.6085 99.5531 14.7347 99.8388 14.849L101.324 11.135C100.757 10.908 100.1 10.7248 99.3825 10.5719L98.5488 14.4841ZM99.8545 14.8552C99.9568 14.8951 100.063 14.9625 100.181 15.1044L103.254 12.5436C102.732 11.9175 102.081 11.4303 101.309 11.1288L99.8545 14.8552ZM100.22 15.1501C100.189 15.1143 100.182 15.0883 100.186 15.1026C100.193 15.1235 100.214 15.2011 100.214 15.36H104.214C104.214 14.3729 103.958 13.3369 103.215 12.4979L100.22 15.1501ZM100.214 15.36C100.214 15.4566 100.195 15.5066 100.145 15.5746L103.355 17.9614C103.923 17.1974 104.214 16.3088 104.214 15.36H100.214ZM100.125 15.6016C100.076 15.6695 99.959 15.7945 99.6574 15.9253L101.25 19.5947C102.079 19.2349 102.826 18.6985 103.374 17.9344L100.125 15.6016ZM99.6743 15.9181C99.4209 16.0253 99.0418 16.112 98.4856 16.112V20.112C99.4442 20.112 100.377 19.964 101.233 19.6019L99.6743 15.9181Z" fill="white"/>
<path d="M21.167 29V65.4994L33.389 70.0933V66.468C29.951 65.9839 26.5042 65.1689 23.836 62.4286L25.8985 60.482C27.7547 62.388 30.3339 63.0796 33.2745 63.5477L29.2736 30.8102C26.622 30.3129 23.9014 29.7674 21.167 29ZM81.8379 29.0045C71.8803 31.6216 60.7008 29.0199 52.6242 39.6602V71.0809C55.6484 66.6946 59.5668 64.9316 63.4285 64.0793C68.6097 62.9353 73.5391 63.0015 77.4074 59.9224L79.2025 62.1087C74.4273 65.9102 68.7756 65.7782 64.0536 66.8207C59.5781 67.8087 55.8071 69.4735 53.0156 76.3287L81.8377 65.4995L81.8379 29.0045ZM32.0471 29.945L36.2342 64.2766L36.2433 64.3613V97L39.2897 91.0894L42.4167 96.8307V67.1923L38.1203 31.1819L32.0471 29.945ZM41.2854 33.594L45.1954 66.3644C45.8489 66.7177 46.4717 67.1235 47.0574 67.5777C48.0431 68.3447 48.9536 69.2871 49.7691 70.4322V39.0065C47.4017 36.377 44.5135 34.744 41.2854 33.594ZM15.5 33.7213V69.8068L33.3892 76.2817V73.2864L18.3551 67.8459V33.7213H15.5ZM84.6451 33.7258V67.8457L51.5024 79.837L45.2722 77.5844V83.3445C48.8181 84.5528 54.1451 84.3697 58.4491 82.9638V80.321L87.5 69.8067V33.7259L84.6451 33.7258ZM45.2719 69.7691V74.5561L49.483 76.1406C48.4075 73.0036 46.9523 71.0756 45.2911 69.7831C45.285 69.7785 45.2782 69.7739 45.2719 69.7691Z" fill="#810EA7"/>
<path d="M72.5037 47.3603C72.245 47.0203 71.93 46.7256 71.6376 46.4309C70.884 45.7509 70.0291 45.2635 69.3093 44.5495C67.6333 42.8948 67.2621 40.1634 68.3307 38.0667C67.2621 38.3273 66.3286 38.9167 65.53 39.5627C62.6167 41.9201 61.4695 46.0796 62.8417 49.6497C62.8867 49.763 62.9317 49.8763 62.9317 50.0237C62.9317 50.273 62.763 50.4997 62.538 50.5904C62.2793 50.7037 62.0094 50.6357 61.7956 50.4544C61.7314 50.4009 61.678 50.3354 61.6382 50.2617C60.3672 48.641 60.1647 46.3176 61.0195 44.4588C59.1411 46.0002 58.1176 48.607 58.2638 51.0664C58.3313 51.6331 58.3988 52.1997 58.59 52.7664C58.7475 53.4464 59.0511 54.1265 59.3886 54.7271C60.6034 56.6879 62.7067 58.0932 64.9676 58.3766C67.3746 58.6826 69.9504 58.2406 71.7951 56.5632C73.8534 54.6818 74.5733 51.6671 73.516 49.083L73.3698 48.7883C73.1336 48.267 72.5037 47.3603 72.5037 47.3603ZM68.9493 54.5005C68.6344 54.7725 68.117 55.0672 67.7121 55.1805C66.4523 55.6338 65.1925 54.9991 64.4502 54.2511C65.7887 53.9338 66.5873 52.9364 66.8235 51.9277C67.0147 51.021 66.6548 50.273 66.5085 49.4003C66.3736 48.5616 66.3961 47.8476 66.6997 47.0656C66.9135 47.4963 67.1384 47.9269 67.4084 48.267C68.2745 49.4003 69.6355 49.899 69.9279 51.4404C69.9729 51.5991 69.9954 51.7577 69.9954 51.9277C70.0291 52.8571 69.6242 53.8771 68.9493 54.5005Z" fill="white"/>
<path d="M45.8669 68.9654L45.8647 68.9638L45.8631 68.9626M45.8669 68.9654L45.8629 68.9625C45.8627 68.9624 45.8628 68.9624 45.8631 68.9626M45.8669 68.9654C45.8651 68.9641 45.8637 68.9631 45.8631 68.9626M45.8669 68.9654L45.8631 68.9626M21.4373 28.0372L20.167 27.6807V29V65.4994V66.1918L20.8152 66.4354L33.0372 71.0294L34.389 71.5375V70.0933V66.468V65.5989L33.5285 65.4777C30.467 65.0467 27.6048 64.3707 25.2972 62.4246L25.9093 61.8468C27.9218 63.4952 30.4839 64.1161 33.1173 64.5353L34.4281 64.744L34.2671 63.4264L30.2662 30.6889L30.1774 29.9623L29.4579 29.8273C26.8118 29.331 24.1271 28.7921 21.4373 28.0372ZM82.8379 29.0045L82.8379 27.7077L81.5837 28.0374C79.1709 28.6715 76.6687 28.9934 74.0961 29.2835C73.7626 29.3211 73.4278 29.3582 73.0917 29.3954C70.8562 29.6431 68.5704 29.8962 66.3301 30.3429C61.1226 31.3813 56.057 33.4838 51.8277 39.0556L51.6242 39.3236V39.6602V71.0809V74.293L53.4475 71.6485C56.2863 67.531 59.9466 65.8719 63.644 65.0559L63.6441 65.0558C64.9081 64.7767 66.1615 64.5704 67.4145 64.3673L67.5831 64.34C68.7713 64.1475 69.9639 63.9544 71.1217 63.7039C73.2528 63.2428 75.3358 62.5744 77.2353 61.2887L77.7626 61.9309C75.7621 63.3037 73.6055 64.0356 71.3931 64.5227C70.1296 64.8009 68.8623 64.9965 67.5903 65.1907L67.4924 65.2056C66.264 65.3931 65.0253 65.5821 63.838 65.8442C61.5483 66.3497 59.3216 67.0516 57.3008 68.5762C55.272 70.1069 53.5353 72.401 52.0895 75.9515L51.2272 78.0688L53.3673 77.2648L82.1894 66.4356L82.8377 66.192V65.4995L82.8379 29.0045ZM32.2466 28.9651L30.8864 28.6881L31.0544 30.066L35.2407 64.391L35.2433 64.4153V97L37.1322 97.4581L39.3141 93.2249L41.5385 97.309L43.4167 96.8307V67.1923V67.1329L43.4096 67.0739L39.1133 31.0634L39.0277 30.3461L38.3199 30.202L32.2466 28.9651ZM41.621 32.652L40.1013 32.1105L40.2924 33.7124L44.2024 66.4829L44.2638 66.9977L44.7199 67.2442C45.325 67.5712 45.9015 67.9468 46.4435 68.3671C47.35 69.0725 48.1936 69.9438 48.9546 71.0123L50.7691 73.5602V70.4322V39.0065V38.6227L50.5123 38.3374C48.0036 35.5509 44.9565 33.8403 41.621 32.652ZM15.5 32.7213H14.5V33.7213V69.8068V70.5084L15.1597 70.7471L33.0489 77.222L34.3892 77.7071V76.2817V73.2864V72.5848L33.7295 72.3461L19.3551 67.1443V33.7213V32.7213H18.3551H15.5ZM84.6451 32.7258L83.6451 32.7257V33.7258V67.1441L51.5023 78.7736L45.6122 76.644L44.2722 76.1595V77.5844V83.3445V84.0602L44.9497 84.2911C48.7468 85.585 54.3016 85.3706 58.7596 83.9144L59.4491 83.6892V82.9638V81.0226L87.8403 70.747L88.5 70.5082V69.8067V33.7259V32.726L87.5001 32.7259L84.6451 32.7258ZM45.8716 68.9687L44.2719 67.7393V69.7691V74.5561V75.2483L44.9197 75.492L49.1308 77.0765L51.1173 77.824L50.4289 75.8162C49.3005 72.525 47.7428 70.4237 45.9053 68.9938L45.8955 68.9862L45.8855 68.9789L45.8716 68.9687Z" stroke="white" stroke-width="2"/>
</svg>
