<svg width="103" height="13" viewBox="0 0 103 13" fill="none" xmlns="http://www.w3.org/2000/svg">
<path d="M16.784 0.719999L14.016 12H10.16L8.608 5.088L7.024 12H3.168L0.432 0.719999H3.824L5.136 8.432L6.912 0.719999H10.352L12.08 8.368L13.392 0.719999H16.784ZM17.6028 7.504C17.6028 6.576 17.7681 5.76533 18.0988 5.072C18.4401 4.37867 18.8988 3.84533 19.4748 3.472C20.0614 3.09867 20.7121 2.912 21.4268 2.912C22.0454 2.912 22.5788 3.03467 23.0268 3.28C23.4748 3.52533 23.8214 3.856 24.0668 4.272V3.024H27.2028V12H24.0668V10.752C23.8214 11.168 23.4694 11.4987 23.0108 11.744C22.5628 11.9893 22.0348 12.112 21.4268 12.112C20.7121 12.112 20.0614 11.9253 19.4748 11.552C18.8988 11.1787 18.4401 10.6453 18.0988 9.952C17.7681 9.248 17.6028 8.432 17.6028 7.504ZM24.0668 7.504C24.0668 6.928 23.9068 6.47467 23.5868 6.144C23.2774 5.81333 22.8934 5.648 22.4348 5.648C21.9654 5.648 21.5761 5.81333 21.2668 6.144C20.9574 6.464 20.8028 6.91733 20.8028 7.504C20.8028 8.08 20.9574 8.53867 21.2668 8.88C21.5761 9.21067 21.9654 9.376 22.4348 9.376C22.8934 9.376 23.2774 9.21067 23.5868 8.88C23.9068 8.54933 24.0668 8.09067 24.0668 7.504ZM32.1258 4.608C32.4778 4.096 32.9044 3.69067 33.4058 3.392C33.9071 3.09333 34.4458 2.944 35.0218 2.944V6.288H34.1418C33.4591 6.288 32.9524 6.42133 32.6218 6.688C32.2911 6.95467 32.1258 7.41867 32.1258 8.08V12H28.9898V3.024H32.1258V4.608ZM47.874 2.944C49.0047 2.944 49.89 3.28533 50.53 3.968C51.1807 4.65067 51.506 5.584 51.506 6.768V12H48.37V7.184C48.37 6.704 48.2367 6.33067 47.97 6.064C47.7033 5.79733 47.3407 5.664 46.882 5.664C46.4233 5.664 46.0607 5.79733 45.794 6.064C45.5273 6.33067 45.394 6.704 45.394 7.184V12H42.258V7.184C42.258 6.704 42.1247 6.33067 41.858 6.064C41.602 5.79733 41.2447 5.664 40.786 5.664C40.3167 5.664 39.9487 5.79733 39.682 6.064C39.4153 6.33067 39.282 6.704 39.282 7.184V12H36.146V3.024H39.282V4.208C39.5593 3.824 39.9167 3.52 40.354 3.296C40.802 3.06133 41.314 2.944 41.89 2.944C42.5513 2.944 43.138 3.088 43.65 3.376C44.1727 3.664 44.5833 4.06933 44.882 4.592C45.202 4.10133 45.6233 3.70667 46.146 3.408C46.6687 3.09867 47.2447 2.944 47.874 2.944ZM60.4241 6.208C61.0855 6.35733 61.6081 6.688 61.9921 7.2C62.3868 7.70133 62.5841 8.27733 62.5841 8.928C62.5841 9.888 62.2535 10.64 61.5921 11.184C60.9308 11.728 60.0028 12 58.8081 12H53.2241V0.719999H58.6321C59.7841 0.719999 60.6855 0.976 61.3361 1.488C61.9975 2 62.3281 2.72 62.3281 3.648C62.3281 4.30933 62.1521 4.864 61.8001 5.312C61.4588 5.74933 61.0001 6.048 60.4241 6.208ZM56.3601 5.2H57.9441C58.7335 5.2 59.1281 4.87467 59.1281 4.224C59.1281 3.552 58.7335 3.216 57.9441 3.216H56.3601V5.2ZM58.1841 9.472C58.9735 9.472 59.3681 9.14133 59.3681 8.48C59.3681 8.13867 59.2615 7.87733 59.0481 7.696C58.8455 7.51467 58.5521 7.424 58.1681 7.424H56.3601V9.472H58.1841ZM68.1345 12.112C67.2385 12.112 66.4332 11.9253 65.7185 11.552C65.0145 11.1787 64.4598 10.6453 64.0545 9.952C63.6492 9.25867 63.4465 8.44267 63.4465 7.504C63.4465 6.576 63.6492 5.76533 64.0545 5.072C64.4705 4.37867 65.0305 3.84533 65.7345 3.472C66.4492 3.09867 67.2545 2.912 68.1505 2.912C69.0465 2.912 69.8465 3.09867 70.5505 3.472C71.2652 3.84533 71.8252 4.37867 72.2305 5.072C72.6465 5.76533 72.8545 6.576 72.8545 7.504C72.8545 8.432 72.6465 9.248 72.2305 9.952C71.8252 10.6453 71.2652 11.1787 70.5505 11.552C69.8358 11.9253 69.0305 12.112 68.1345 12.112ZM68.1345 9.392C68.5718 9.392 68.9345 9.232 69.2225 8.912C69.5212 8.58133 69.6705 8.112 69.6705 7.504C69.6705 6.896 69.5212 6.432 69.2225 6.112C68.9345 5.792 68.5772 5.632 68.1505 5.632C67.7238 5.632 67.3665 5.792 67.0785 6.112C66.7905 6.432 66.6465 6.896 66.6465 7.504C66.6465 8.12267 66.7852 8.592 67.0625 8.912C67.3398 9.232 67.6972 9.392 68.1345 9.392ZM78.3064 12.112C77.4104 12.112 76.605 11.9253 75.8904 11.552C75.1864 11.1787 74.6317 10.6453 74.2264 9.952C73.821 9.25867 73.6184 8.44267 73.6184 7.504C73.6184 6.576 73.821 5.76533 74.2264 5.072C74.6424 4.37867 75.2024 3.84533 75.9064 3.472C76.621 3.09867 77.4264 2.912 78.3224 2.912C79.2184 2.912 80.0184 3.09867 80.7224 3.472C81.437 3.84533 81.997 4.37867 82.4024 5.072C82.8184 5.76533 83.0264 6.576 83.0264 7.504C83.0264 8.432 82.8184 9.248 82.4024 9.952C81.997 10.6453 81.437 11.1787 80.7224 11.552C80.0077 11.9253 79.2024 12.112 78.3064 12.112ZM78.3064 9.392C78.7437 9.392 79.1064 9.232 79.3944 8.912C79.693 8.58133 79.8424 8.112 79.8424 7.504C79.8424 6.896 79.693 6.432 79.3944 6.112C79.1064 5.792 78.749 5.632 78.3224 5.632C77.8957 5.632 77.5384 5.792 77.2504 6.112C76.9624 6.432 76.8184 6.896 76.8184 7.504C76.8184 8.12267 76.957 8.592 77.2344 8.912C77.5117 9.232 77.869 9.392 78.3064 9.392ZM89.9183 12L87.4383 8.32V12H84.3023V0.16H87.4383V6.544L89.9183 3.024H93.6783L90.1423 7.536L93.7423 12H89.9183ZM98.4856 12.112C97.675 12.112 96.9496 11.9787 96.3096 11.712C95.6803 11.4347 95.179 11.0613 94.8056 10.592C94.443 10.112 94.2403 9.57333 94.1976 8.976H97.2376C97.2803 9.264 97.4136 9.488 97.6376 9.648C97.8616 9.808 98.139 9.888 98.4696 9.888C98.7256 9.888 98.9283 9.83467 99.0776 9.728C99.227 9.62133 99.3016 9.48267 99.3016 9.312C99.3016 9.088 99.179 8.92267 98.9336 8.816C98.6883 8.70933 98.283 8.592 97.7176 8.464C97.0776 8.336 96.5443 8.192 96.1176 8.032C95.691 7.872 95.3176 7.61067 94.9976 7.248C94.6883 6.88533 94.5336 6.39467 94.5336 5.776C94.5336 5.24267 94.6776 4.76267 94.9656 4.336C95.2536 3.89867 95.675 3.552 96.2296 3.296C96.795 3.04 97.4723 2.912 98.2616 2.912C99.435 2.912 100.358 3.2 101.03 3.776C101.702 4.352 102.091 5.10933 102.198 6.048H99.3656C99.3123 5.76 99.1843 5.54133 98.9816 5.392C98.7896 5.232 98.5283 5.152 98.1976 5.152C97.9416 5.152 97.7443 5.2 97.6056 5.296C97.4776 5.392 97.4136 5.52533 97.4136 5.696C97.4136 5.90933 97.5363 6.07467 97.7816 6.192C98.027 6.29867 98.4216 6.41067 98.9656 6.528C99.6163 6.66667 100.155 6.82133 100.582 6.992C101.019 7.16267 101.398 7.44 101.718 7.824C102.048 8.19733 102.214 8.70933 102.214 9.36C102.214 9.88267 102.059 10.352 101.75 10.768C101.451 11.184 101.019 11.5147 100.454 11.76C99.899 11.9947 99.243 12.112 98.4856 12.112Z" fill="#810EA7"/>
<path d="M16.784 0.719999L18.7264 1.19664L19.3341 -1.28H16.784V0.719999ZM14.016 12V14H15.5846L15.9584 12.4766L14.016 12ZM10.16 12L8.20859 12.4382L8.55928 14H10.16V12ZM8.608 5.088L10.5594 4.64984L6.65854 4.64125L8.608 5.088ZM7.024 12V14H8.61751L8.97346 12.4468L7.024 12ZM3.168 12L1.22436 12.4714L1.59512 14H3.168V12ZM0.432 0.719999V-1.28H-2.1111L-1.51164 1.19144L0.432 0.719999ZM3.824 0.719999L5.79567 0.38457L5.51249 -1.28H3.824V0.719999ZM5.136 8.432L3.16433 8.76743L7.08499 8.88083L5.136 8.432ZM6.912 0.719999V-1.28H5.32023L4.96301 0.271166L6.912 0.719999ZM10.352 0.719999L12.3028 0.279227L11.9505 -1.28H10.352V0.719999ZM12.08 8.368L10.1292 8.80877L14.0512 8.70616L12.08 8.368ZM13.392 0.719999V-1.28H11.7059L11.4208 0.381843L13.392 0.719999ZM14.8416 0.24336L12.0736 11.5234L15.9584 12.4766L18.7264 1.19664L14.8416 0.24336ZM14.016 10H10.16V14H14.016V10ZM12.1114 11.5618L10.5594 4.64984L6.65659 5.52616L8.20859 12.4382L12.1114 11.5618ZM6.65854 4.64125L5.07454 11.5532L8.97346 12.4468L10.5575 5.53475L6.65854 4.64125ZM7.024 10H3.168V14H7.024V10ZM5.11164 11.5286L2.37564 0.248562L-1.51164 1.19144L1.22436 12.4714L5.11164 11.5286ZM0.432 2.72H3.824V-1.28H0.432V2.72ZM1.85233 1.05543L3.16433 8.76743L7.10767 8.09657L5.79567 0.38457L1.85233 1.05543ZM7.08499 8.88083L8.86099 1.16883L4.96301 0.271166L3.18701 7.98317L7.08499 8.88083ZM6.912 2.72H10.352V-1.28H6.912V2.72ZM8.40117 1.16077L10.1292 8.80877L14.0308 7.92723L12.3028 0.279227L8.40117 1.16077ZM14.0512 8.70616L15.3632 1.05816L11.4208 0.381843L10.1088 8.02984L14.0512 8.70616ZM13.392 2.72H16.784V-1.28H13.392V2.72ZM18.0987 5.072L16.3044 4.18863L16.2989 4.19981L16.2935 4.21105L18.0987 5.072ZM19.4748 3.472L18.401 1.78468L18.394 1.78916L18.387 1.79369L19.4748 3.472ZM23.0268 3.28L22.0661 5.03419H22.0661L23.0268 3.28ZM24.0667 4.272L22.344 5.28797L26.0667 11.6004V4.272H24.0667ZM24.0667 3.024V1.024H22.0667V3.024H24.0667ZM27.2028 3.024H29.2028V1.024H27.2028V3.024ZM27.2028 12V14H29.2028V12H27.2028ZM24.0667 12H22.0667V14H24.0667V12ZM24.0667 10.752H26.0667V3.42357L22.344 9.73603L24.0667 10.752ZM23.0107 11.744L22.0674 9.98043L22.0588 9.98508L22.0501 9.98981L23.0107 11.744ZM19.4748 11.552L18.387 13.2303L18.394 13.2348L18.401 13.2393L19.4748 11.552ZM18.0987 9.952L16.2885 10.8023L16.2963 10.8189L16.3044 10.8354L18.0987 9.952ZM23.5868 6.144L22.1262 7.51031L22.1378 7.52268L22.1495 7.53484L23.5868 6.144ZM21.2668 6.144L22.7047 7.53404L22.7161 7.52227L22.7273 7.51031L21.2668 6.144ZM21.2668 8.88L19.7848 10.223L19.7954 10.2348L19.8062 10.2463L21.2668 8.88ZM23.5868 8.88L22.1495 7.48916L22.1378 7.50132L22.1262 7.51369L23.5868 8.88ZM19.6028 7.504C19.6028 6.81287 19.7254 6.30726 19.904 5.93294L16.2935 4.21105C15.8107 5.22341 15.6027 6.33912 15.6027 7.504H19.6028ZM19.8931 5.95537C20.0955 5.5442 20.3263 5.30345 20.5625 5.1503L18.387 1.79369C17.4712 2.38722 16.7847 3.21313 16.3044 4.18863L19.8931 5.95537ZM20.5485 5.15932C20.805 4.9961 21.0813 4.912 21.4268 4.912V0.912C20.3429 0.912 19.3178 1.20123 18.401 1.78468L20.5485 5.15932ZM21.4268 4.912C21.7801 4.912 21.9688 4.9809 22.0661 5.03419L23.9874 1.52581C23.1887 1.08844 22.3107 0.912 21.4268 0.912V4.912ZM22.0661 5.03419C22.2172 5.11693 22.2923 5.20026 22.344 5.28797L25.7895 3.25603C25.3505 2.51174 24.7323 1.93374 23.9874 1.52581L22.0661 5.03419ZM26.0667 4.272V3.024H22.0667V4.272H26.0667ZM24.0667 5.024H27.2028V1.024H24.0667V5.024ZM25.2028 3.024V12H29.2028V3.024H25.2028ZM27.2028 10H24.0667V14H27.2028V10ZM26.0667 12V10.752H22.0667V12H26.0667ZM22.344 9.73603C22.2994 9.81172 22.2285 9.89427 22.0674 9.98043L23.9541 13.5076C24.7103 13.1031 25.3435 12.5243 25.7895 11.768L22.344 9.73603ZM22.0501 9.98981C21.948 10.0458 21.7628 10.112 21.4268 10.112V14.112C22.3067 14.112 23.1775 13.9329 23.9714 13.4982L22.0501 9.98981ZM21.4268 10.112C21.0813 10.112 20.805 10.0279 20.5485 9.86468L18.401 13.2393C19.3178 13.8228 20.3429 14.112 21.4268 14.112V10.112ZM20.5625 9.87369C20.3263 9.72055 20.0955 9.4798 19.8931 9.06863L16.3044 10.8354C16.7847 11.8109 17.4712 12.6368 18.387 13.2303L20.5625 9.87369ZM19.909 9.10173C19.7251 8.71021 19.6028 8.19412 19.6028 7.504H15.6027C15.6027 8.66988 15.8111 9.78579 16.2885 10.8023L19.909 9.10173ZM26.0667 7.504C26.0667 6.5462 25.7903 5.54504 25.024 4.75316L22.1495 7.53484C22.1277 7.5123 22.1077 7.48645 22.091 7.45931C22.0746 7.4324 22.0653 7.41045 22.0608 7.39764C22.052 7.37288 22.0667 7.39909 22.0667 7.504H26.0667ZM25.0473 4.77769C24.3543 4.03686 23.4388 3.648 22.4347 3.648V7.648C22.4187 7.648 22.357 7.64389 22.2758 7.60897C22.1941 7.57379 22.1441 7.52944 22.1262 7.51031L25.0473 4.77769ZM22.4347 3.648C21.4347 3.648 20.509 4.0264 19.8062 4.77769L22.7273 7.51031C22.7049 7.53422 22.6525 7.57891 22.5725 7.61289C22.4941 7.64617 22.4392 7.648 22.4347 7.648V3.648ZM19.8288 4.75395C19.0558 5.55362 18.8027 6.56893 18.8027 7.504H22.8027C22.8027 7.38276 22.8191 7.34784 22.8116 7.3698C22.8075 7.38186 22.7977 7.40631 22.7787 7.43799C22.7595 7.47009 22.7346 7.50318 22.7047 7.53404L19.8288 4.75395ZM18.8027 7.504C18.8027 8.44708 19.0643 9.42807 19.7848 10.223L22.7487 7.53696C22.7662 7.5562 22.7816 7.57743 22.7938 7.59856C22.8059 7.61946 22.8118 7.63483 22.8139 7.64094C22.8178 7.65237 22.8027 7.61482 22.8027 7.504H18.8027ZM19.8062 10.2463C20.509 10.9976 21.4347 11.376 22.4347 11.376V7.376C22.4392 7.376 22.4941 7.37783 22.5725 7.41111C22.6525 7.44509 22.7049 7.48978 22.7273 7.51369L19.8062 10.2463ZM22.4347 11.376C23.4388 11.376 24.3543 10.9871 25.0473 10.2463L22.1262 7.51369C22.1441 7.49456 22.1941 7.45021 22.2758 7.41503C22.357 7.38011 22.4187 7.376 22.4347 7.376V11.376ZM25.024 10.2708C25.7968 9.47229 26.0667 8.46075 26.0667 7.504H22.0667C22.0667 7.61818 22.0509 7.65048 22.0583 7.62926C22.0623 7.61798 22.0712 7.59634 22.0879 7.56884C22.1048 7.54104 22.1258 7.51367 22.1495 7.48916L25.024 10.2708ZM32.1258 4.608H30.1257V11.0474L33.7738 5.74106L32.1258 4.608ZM35.0218 2.944H37.0218V0.943999H35.0218V2.944ZM35.0218 6.288V8.288H37.0218V6.288H35.0218ZM32.6217 6.688L33.8773 8.24483V8.24483L32.6217 6.688ZM32.1258 12V14H34.1258V12H32.1258ZM28.9897 12H26.9897V14H28.9897V12ZM28.9897 3.024V1.024H26.9897V3.024H28.9897ZM32.1258 3.024H34.1258V1.024H32.1258V3.024ZM33.7738 5.74106C33.9731 5.45119 34.1918 5.25172 34.4294 5.1102L32.3821 1.6738C31.617 2.12961 30.9824 2.74081 30.4777 3.47494L33.7738 5.74106ZM34.4294 5.1102C34.6254 4.99342 34.8111 4.944 35.0218 4.944V0.943999C34.0804 0.943999 33.1888 1.19324 32.3821 1.6738L34.4294 5.1102ZM33.0218 2.944V6.288H37.0218V2.944H33.0218ZM35.0218 4.288H34.1418V8.288H35.0218V4.288ZM34.1418 4.288C33.2608 4.288 32.2119 4.44921 31.3662 5.13117L33.8773 8.24483C33.7782 8.32472 33.7161 8.33338 33.7587 8.32215C33.8046 8.31008 33.9234 8.288 34.1418 8.288V4.288ZM31.3662 5.13117C30.3523 5.94885 30.1257 7.15329 30.1257 8.08H34.1258C34.1258 7.90471 34.1491 7.86411 34.1337 7.9073C34.1246 7.93293 34.103 7.9842 34.0595 8.0483C34.015 8.11391 33.9543 8.18266 33.8773 8.24483L31.3662 5.13117ZM30.1257 8.08V12H34.1258V8.08H30.1257ZM32.1258 10H28.9897V14H32.1258V10ZM30.9897 12V3.024H26.9897V12H30.9897ZM28.9897 5.024H32.1258V1.024H28.9897V5.024ZM30.1257 3.024V4.608H34.1258V3.024H30.1257ZM50.53 3.968L49.0709 5.33588L49.0766 5.3419L49.0823 5.34787L50.53 3.968ZM51.506 12V14H53.506V12H51.506ZM48.37 12H46.37V14H48.37V12ZM47.97 6.064L46.5558 7.47821V7.47821L47.97 6.064ZM45.794 6.064L47.2082 7.47821V7.47821L45.794 6.064ZM45.394 12V14H47.394V12H45.394ZM42.258 12H40.258V14H42.258V12ZM41.858 6.064L40.4152 7.44906L40.4294 7.46378L40.4438 7.47821L41.858 6.064ZM39.282 12V14H41.282V12H39.282ZM36.146 12H34.146V14H36.146V12ZM36.146 3.024V1.024H34.146V3.024H36.146ZM39.282 3.024H41.282V1.024H39.282V3.024ZM39.282 4.208H37.282V10.3932L40.9034 5.37898L39.282 4.208ZM40.354 3.296L41.2658 5.07609L41.2739 5.07191L41.282 5.06766L40.354 3.296ZM43.65 3.376L42.6695 5.11915L42.6771 5.12345L42.6848 5.12768L43.65 3.376ZM44.882 4.592L43.1455 5.58428L44.7693 8.42596L46.5572 5.68454L44.882 4.592ZM46.146 3.408L47.1383 5.14449L47.1515 5.13692L47.1646 5.12915L46.146 3.408ZM47.874 4.944C48.5761 4.944 48.8864 5.139 49.0709 5.33588L51.9891 2.60012C50.8937 1.43166 49.4332 0.943999 47.874 0.943999V4.944ZM49.0823 5.34787C49.2938 5.56978 49.506 5.96039 49.506 6.768H53.506C53.506 5.20761 53.0676 3.73156 51.9777 2.58812L49.0823 5.34787ZM49.506 6.768V12H53.506V6.768H49.506ZM51.506 10H48.37V14H51.506V10ZM50.37 12V7.184H46.37V12H50.37ZM50.37 7.184C50.37 6.32548 50.1212 5.38679 49.3842 4.64979L46.5558 7.47821C46.469 7.39145 46.4142 7.29426 46.3865 7.21667C46.3618 7.14737 46.37 7.12642 46.37 7.184H50.37ZM49.3842 4.64979C48.6641 3.92965 47.7489 3.664 46.882 3.664V7.664C46.9188 7.664 46.8846 7.66936 46.8079 7.64116C46.724 7.61034 46.6325 7.55497 46.5558 7.47821L49.3842 4.64979ZM46.882 3.664C46.0151 3.664 45.0999 3.92965 44.3798 4.64979L47.2082 7.47821C47.1315 7.55497 47.04 7.61034 46.9561 7.64116C46.8794 7.66936 46.8452 7.664 46.882 7.664V3.664ZM44.3798 4.64979C43.6428 5.38679 43.394 6.32548 43.394 7.184H47.394C47.394 7.12642 47.4022 7.14737 47.3775 7.21667C47.3498 7.29426 47.295 7.39145 47.2082 7.47821L44.3798 4.64979ZM43.394 7.184V12H47.394V7.184H43.394ZM45.394 10H42.258V14H45.394V10ZM44.258 12V7.184H40.258V12H44.258ZM44.258 7.184C44.258 6.32548 44.0092 5.38679 43.2722 4.64979L40.4438 7.47821C40.357 7.39144 40.3022 7.29425 40.2745 7.21667C40.2498 7.14737 40.258 7.12642 40.258 7.184H44.258ZM43.3008 4.67894C42.5807 3.92887 41.6495 3.664 40.786 3.664V7.664C40.8237 7.664 40.784 7.66959 40.6988 7.6378C40.6053 7.6029 40.5019 7.5394 40.4152 7.44906L43.3008 4.67894ZM40.786 3.664C39.9234 3.664 38.9965 3.92105 38.2678 4.64979L41.0962 7.47821C41.0144 7.56 40.9201 7.61511 40.8393 7.64438C40.7662 7.67085 40.7387 7.664 40.786 7.664V3.664ZM38.2678 4.64979C37.5308 5.38679 37.282 6.32548 37.282 7.184H41.282C41.282 7.12642 41.2902 7.14737 41.2655 7.21667C41.2378 7.29425 41.183 7.39144 41.0962 7.47821L38.2678 4.64979ZM37.282 7.184V12H41.282V7.184H37.282ZM39.282 10H36.146V14H39.282V10ZM38.146 12V3.024H34.146V12H38.146ZM36.146 5.024H39.282V1.024H36.146V5.024ZM37.282 3.024V4.208H41.282V3.024H37.282ZM40.9034 5.37898C40.9886 5.26095 41.0989 5.16154 41.2658 5.07609L39.4422 1.51591C38.7344 1.87846 38.1301 2.38705 37.6606 3.03702L40.9034 5.37898ZM41.282 5.06766C41.4061 5.00268 41.5919 4.944 41.89 4.944V0.943999C41.0361 0.943999 40.1979 1.11998 39.426 1.52434L41.282 5.06766ZM41.89 4.944C42.2518 4.944 42.493 5.01987 42.6695 5.11915L44.6305 1.63285C43.783 1.15613 42.8508 0.943999 41.89 0.943999V4.944ZM42.6848 5.12768C42.8825 5.23661 43.0276 5.37787 43.1455 5.58428L46.6185 3.59972C46.1391 2.76079 45.4628 2.09139 44.6152 1.62432L42.6848 5.12768ZM46.5572 5.68454C46.699 5.46717 46.8832 5.29023 47.1383 5.14449L45.1537 1.67151C44.3634 2.12311 43.705 2.7355 43.2068 3.49946L46.5572 5.68454ZM47.1646 5.12915C47.3674 5.00915 47.5895 4.944 47.874 4.944V0.943999C46.8998 0.943999 45.9699 1.18818 45.1274 1.68685L47.1646 5.12915ZM60.4241 6.208L59.8888 4.28096L59.9836 8.15888L60.4241 6.208ZM61.9921 7.2L60.3921 8.4L60.4062 8.41873L60.4207 8.43712L61.9921 7.2ZM61.5921 11.184L62.8627 12.7286V12.7286L61.5921 11.184ZM53.2241 12H51.2241V14H53.2241V12ZM53.2241 0.719999V-1.28H51.2241V0.719999H53.2241ZM61.3361 1.488L60.0993 3.05974L60.1055 3.06462L60.1118 3.06945L61.3361 1.488ZM61.8001 5.312L60.2275 4.07635L60.2235 4.08146L61.8001 5.312ZM56.3601 5.2H54.3601V7.2H56.3601V5.2ZM56.3601 3.216V1.216H54.3601V3.216H56.3601ZM59.0481 7.696L57.7145 9.18648L57.7335 9.20342L57.7528 9.21988L59.0481 7.696ZM56.3601 7.424V5.424H54.3601V7.424H56.3601ZM56.3601 9.472H54.3601V11.472H56.3601V9.472ZM59.9836 8.15888C60.2113 8.21031 60.311 8.29182 60.3921 8.4L63.5921 6C62.9053 5.08418 61.9596 4.50436 60.8646 4.25712L59.9836 8.15888ZM60.4207 8.43712C60.5318 8.57835 60.5841 8.71648 60.5841 8.928H64.5841C64.5841 7.83819 64.2418 6.82432 63.5636 5.96288L60.4207 8.43712ZM60.5841 8.928C60.5841 9.37171 60.4614 9.52437 60.3216 9.63942L62.8627 12.7286C64.0455 11.7556 64.5841 10.4043 64.5841 8.928H60.5841ZM60.3216 9.63942C60.1367 9.79151 59.7203 10 58.8081 10V14C60.2853 14 61.7249 13.6645 62.8627 12.7286L60.3216 9.63942ZM58.8081 10H53.2241V14H58.8081V10ZM55.2241 12V0.719999H51.2241V12H55.2241ZM53.2241 2.72H58.6321V-1.28H53.2241V2.72ZM58.6321 2.72C59.5082 2.72 59.9165 2.91583 60.0993 3.05974L62.5729 -0.0837417C61.4545 -0.963832 60.06 -1.28 58.6321 -1.28V2.72ZM60.1118 3.06945C60.2256 3.15756 60.3281 3.26115 60.3281 3.648H64.3281C64.3281 2.17885 63.7693 0.842436 62.5605 -0.0934477L60.1118 3.06945ZM60.3281 3.648C60.3281 3.93649 60.2594 4.03568 60.2275 4.07636L63.3728 6.54764C64.0448 5.69232 64.3281 4.68218 64.3281 3.648H60.3281ZM60.2235 4.08146C60.1666 4.15435 60.086 4.22619 59.8888 4.28096L60.9594 8.13504C61.9142 7.86981 62.751 7.34432 63.3768 6.54254L60.2235 4.08146ZM56.3601 7.2H57.9441V3.2H56.3601V7.2ZM57.9441 7.2C58.5632 7.2 59.3994 7.08031 60.1043 6.49926C60.8831 5.85722 61.1281 4.97039 61.1281 4.224H57.1281C57.1281 4.18843 57.1332 4.06646 57.2 3.90124C57.2717 3.72377 57.3939 3.54965 57.56 3.41274C57.8702 3.15703 58.1143 3.2 57.9441 3.2V7.2ZM61.1281 4.224C61.1281 3.48798 60.8969 2.59919 60.1286 1.94514C59.422 1.34355 58.5754 1.216 57.9441 1.216V5.216C58.1021 5.216 57.8476 5.25645 57.5356 4.99086C57.3719 4.85143 57.2572 4.67928 57.1918 4.51217C57.1311 4.3572 57.1281 4.24734 57.1281 4.224H61.1281ZM57.9441 1.216H56.3601V5.216H57.9441V1.216ZM54.3601 3.216V5.2H58.3601V3.216H54.3601ZM58.1841 11.472C58.8093 11.472 59.6507 11.3484 60.3566 10.757C61.1302 10.1089 61.3681 9.22101 61.3681 8.48H57.3681C57.3681 8.45061 57.3721 8.33474 57.4358 8.17467C57.5043 8.00238 57.6227 7.82919 57.7877 7.69096C58.0989 7.43025 58.3483 7.472 58.1841 7.472V11.472ZM61.3681 8.48C61.3681 7.69255 61.1009 6.81596 60.3434 6.17212L57.7528 9.21988C57.6131 9.10108 57.5033 8.94755 57.4364 8.78379C57.3736 8.62997 57.3681 8.5156 57.3681 8.48H61.3681ZM60.3817 6.20552C59.6856 5.58268 58.8424 5.424 58.1681 5.424V9.424C58.2618 9.424 58.0053 9.44665 57.7145 9.18648L60.3817 6.20552ZM58.1681 5.424H56.3601V9.424H58.1681V5.424ZM54.3601 7.424V9.472H58.3601V7.424H54.3601ZM56.3601 11.472H58.1841V7.472H56.3601V11.472ZM65.7185 11.552L64.7815 13.319L64.7925 13.3247L65.7185 11.552ZM64.0545 9.952L65.7811 8.94261H65.7811L64.0545 9.952ZM64.0545 5.072L62.3395 4.04301L62.3337 4.05277L62.3279 4.06261L64.0545 5.072ZM65.7345 3.472L64.8084 1.69927L64.7975 1.70508L65.7345 3.472ZM70.5505 3.472L69.6135 5.23896L69.6245 5.2447L70.5505 3.472ZM72.2305 5.072L70.5039 6.08139L70.5097 6.09123L70.5155 6.10099L72.2305 5.072ZM72.2305 9.952L70.5086 8.93453L70.5039 8.94261L72.2305 9.952ZM70.5505 11.552L69.6245 9.7793L70.5505 11.552ZM69.2225 8.912L67.7383 7.57143L67.7359 7.57407L69.2225 8.912ZM69.2225 6.112L67.7359 7.44993L67.748 7.46339L67.7604 7.47664L69.2225 6.112ZM67.0625 8.912L65.5511 10.2219L67.0625 8.912ZM68.1345 10.112C67.5245 10.112 67.0427 9.98731 66.6445 9.7793L64.7925 13.3247C65.8236 13.8634 66.9525 14.112 68.1345 14.112V10.112ZM66.6555 9.78508C66.2827 9.58739 66.0003 9.31761 65.7811 8.94261L62.3279 10.9614C62.9193 11.9731 63.7463 12.7699 64.7815 13.3189L66.6555 9.78508ZM65.7811 8.94261C65.583 8.60384 65.4465 8.14839 65.4465 7.504H61.4465C61.4465 8.73694 61.7153 9.91349 62.3279 10.9614L65.7811 8.94261ZM65.4465 7.504C65.4465 6.87484 65.5811 6.42355 65.7811 6.08139L62.3279 4.06261C61.7173 5.10711 61.4465 6.27716 61.4465 7.504H65.4465ZM65.7695 6.10099C66.0011 5.71504 66.2941 5.43906 66.6715 5.23892L64.7975 1.70508C63.7669 2.25161 62.9399 3.0423 62.3395 4.04301L65.7695 6.10099ZM66.6605 5.2447C67.0587 5.03669 67.5405 4.912 68.1505 4.912V0.912C66.9685 0.912 65.8396 1.16064 64.8085 1.6993L66.6605 5.2447ZM68.1505 4.912C68.761 4.912 69.2324 5.03684 69.6135 5.23892L71.4875 1.70507C70.4606 1.16049 69.332 0.912 68.1505 0.912V4.912ZM69.6245 5.2447C70.0072 5.44465 70.2892 5.71406 70.5039 6.08139L73.9571 4.06261C73.3612 3.04328 72.5231 2.24602 71.4765 1.6993L69.6245 5.2447ZM70.5155 6.10099C70.7188 6.43985 70.8545 6.88397 70.8545 7.504H74.8545C74.8545 6.26803 74.5742 5.09081 73.9455 4.04301L70.5155 6.10099ZM70.8545 7.504C70.8545 8.12331 70.719 8.57849 70.5086 8.93454L73.9524 10.9695C74.574 9.91751 74.8545 8.74069 74.8545 7.504H70.8545ZM70.5039 8.94261C70.2892 9.30994 70.0072 9.57935 69.6245 9.7793L71.4765 13.3247C72.5231 12.778 73.3612 11.9807 73.9571 10.9614L70.5039 8.94261ZM69.6245 9.7793C69.2263 9.98731 68.7445 10.112 68.1345 10.112V14.112C69.3165 14.112 70.4454 13.8634 71.4765 13.3247L69.6245 9.7793ZM68.1345 11.392C69.1286 11.392 70.035 10.9989 70.7091 10.2499L67.7359 7.57407C67.7646 7.54224 67.8283 7.48582 67.9272 7.44216C68.0254 7.39885 68.1041 7.392 68.1345 7.392V11.392ZM70.7067 10.2526C71.442 9.43846 71.6705 8.42511 71.6705 7.504H67.6705C67.6705 7.64849 67.6523 7.70671 67.6526 7.70559C67.6533 7.70367 67.6588 7.687 67.6735 7.66079C67.6884 7.63408 67.7099 7.60292 67.7383 7.57143L70.7067 10.2526ZM71.6705 7.504C71.6705 6.58794 71.444 5.561 70.6846 4.74736L67.7604 7.47664C67.7262 7.44004 67.7003 7.40336 67.682 7.37128C67.664 7.33979 67.6565 7.31832 67.6547 7.31273C67.653 7.30766 67.6572 7.3189 67.6616 7.35094C67.6661 7.38315 67.6705 7.43322 67.6705 7.504H71.6705ZM70.7091 4.77407C70.0457 4.03699 69.15 3.632 68.1505 3.632V7.632C68.1077 7.632 68.022 7.6225 67.9212 7.57737C67.8208 7.53243 67.7598 7.4765 67.7359 7.44993L70.7091 4.77407ZM68.1505 3.632C67.151 3.632 66.2553 4.03699 65.5919 4.77407L68.5651 7.44993C68.5412 7.4765 68.4802 7.53243 68.3798 7.57737C68.279 7.6225 68.1933 7.632 68.1505 7.632V3.632ZM65.5919 4.77407C64.859 5.58839 64.6465 6.60479 64.6465 7.504H68.6465C68.6465 7.4303 68.6509 7.37695 68.6557 7.34126C68.6605 7.3057 68.6652 7.29098 68.6646 7.2928C68.6639 7.29508 68.6577 7.31416 68.6412 7.34421C68.6243 7.37487 68.5994 7.41182 68.5651 7.44993L65.5919 4.77407ZM64.6465 7.504C64.6465 8.38689 64.8409 9.40233 65.5511 10.2219L68.5739 7.60214C68.6099 7.64367 68.6343 7.68216 68.6498 7.71152C68.6649 7.7402 68.6694 7.75617 68.6685 7.75331C68.6676 7.75005 68.6618 7.72942 68.6564 7.68714C68.6511 7.64483 68.6465 7.58464 68.6465 7.504H64.6465ZM65.5511 10.2219C66.2224 10.9964 67.1389 11.392 68.1345 11.392V7.392C68.1644 7.392 68.2488 7.39871 68.3558 7.44663C68.4645 7.4953 68.5374 7.56001 68.5739 7.60214L65.5511 10.2219ZM75.8904 11.552L74.9534 13.319L74.9643 13.3247L75.8904 11.552ZM74.2264 9.952L75.953 8.94261H75.953L74.2264 9.952ZM74.2264 5.072L72.5114 4.04301L72.5055 4.05277L72.4998 4.06261L74.2264 5.072ZM75.9064 3.472L74.9803 1.69927L74.9694 1.70508L75.9064 3.472ZM80.7224 3.472L79.7854 5.23896L79.7963 5.2447L80.7224 3.472ZM82.4024 5.072L80.6758 6.08139L80.6815 6.09123L80.6874 6.10099L82.4024 5.072ZM82.4024 9.952L80.6805 8.93453L80.6758 8.94261L82.4024 9.952ZM80.7224 11.552L79.7963 9.7793L80.7224 11.552ZM79.3944 8.912L77.9102 7.57143L77.9078 7.57407L79.3944 8.912ZM79.3944 6.112L77.9078 7.44993L77.9199 7.46339L77.9323 7.47664L79.3944 6.112ZM77.2344 8.912L75.723 10.2219L77.2344 8.912ZM78.3064 10.112C77.6964 10.112 77.2146 9.98731 76.8164 9.7793L74.9643 13.3247C75.9955 13.8634 77.1243 14.112 78.3064 14.112V10.112ZM76.8274 9.78508C76.4546 9.58739 76.1722 9.31761 75.953 8.94261L72.4998 10.9614C73.0912 11.9731 73.9182 12.7699 74.9534 13.3189L76.8274 9.78508ZM75.953 8.94261C75.7549 8.60384 75.6184 8.14839 75.6184 7.504H71.6184C71.6184 8.73694 71.8872 9.91349 72.4998 10.9614L75.953 8.94261ZM75.6184 7.504C75.6184 6.87484 75.7529 6.42355 75.953 6.08139L72.4998 4.06261C71.8891 5.10711 71.6184 6.27716 71.6184 7.504H75.6184ZM75.9414 6.10099C76.1729 5.71504 76.466 5.43906 76.8434 5.23892L74.9694 1.70508C73.9388 2.25161 73.1118 3.0423 72.5114 4.04301L75.9414 6.10099ZM76.8324 5.2447C77.2306 5.03669 77.7124 4.912 78.3224 4.912V0.912C77.1403 0.912 76.0115 1.16064 74.9803 1.6993L76.8324 5.2447ZM78.3224 4.912C78.9329 4.912 79.4043 5.03684 79.7854 5.23892L81.6594 1.70507C80.6324 1.16049 79.5039 0.912 78.3224 0.912V4.912ZM79.7963 5.2447C80.1791 5.44465 80.461 5.71406 80.6758 6.08139L84.129 4.06261C83.5331 3.04328 82.695 2.24602 81.6484 1.6993L79.7963 5.2447ZM80.6874 6.10099C80.8907 6.43985 81.0264 6.88397 81.0264 7.504H85.0264C85.0264 6.26803 84.746 5.09081 84.1174 4.04301L80.6874 6.10099ZM81.0264 7.504C81.0264 8.12331 80.8909 8.57849 80.6805 8.93454L84.1242 10.9695C84.7458 9.91751 85.0264 8.74069 85.0264 7.504H81.0264ZM80.6758 8.94261C80.461 9.30994 80.1791 9.57935 79.7963 9.7793L81.6484 13.3247C82.695 12.778 83.5331 11.9807 84.129 10.9614L80.6758 8.94261ZM79.7963 9.7793C79.3982 9.98731 78.9163 10.112 78.3064 10.112V14.112C79.4884 14.112 80.6173 13.8634 81.6484 13.3247L79.7963 9.7793ZM78.3064 11.392C79.3004 11.392 80.2069 10.9989 80.881 10.2499L77.9078 7.57407C77.9364 7.54224 78.0001 7.48582 78.0991 7.44216C78.1973 7.39885 78.2759 7.392 78.3064 7.392V11.392ZM80.8786 10.2526C81.6139 9.43846 81.8424 8.42511 81.8424 7.504H77.8424C77.8424 7.64849 77.8242 7.70671 77.8245 7.70559C77.8251 7.70367 77.8307 7.687 77.8454 7.66079C77.8603 7.63408 77.8817 7.60292 77.9102 7.57143L80.8786 10.2526ZM81.8424 7.504C81.8424 6.58794 81.6159 5.561 80.8565 4.74736L77.9323 7.47664C77.8981 7.44004 77.8722 7.40336 77.8539 7.37128C77.8359 7.33979 77.8283 7.31832 77.8265 7.31273C77.8249 7.30766 77.829 7.3189 77.8335 7.35094C77.838 7.38315 77.8424 7.43322 77.8424 7.504H81.8424ZM80.881 4.77407C80.2176 4.03699 79.3218 3.632 78.3224 3.632V7.632C78.2796 7.632 78.1938 7.6225 78.093 7.57737C77.9927 7.53243 77.9317 7.4765 77.9078 7.44993L80.881 4.77407ZM78.3224 3.632C77.3229 3.632 76.4272 4.03699 75.7638 4.77407L78.737 7.44993C78.7131 7.4765 78.6521 7.53243 78.5517 7.57737C78.4509 7.6225 78.3652 7.632 78.3224 7.632V3.632ZM75.7638 4.77407C75.0309 5.58839 74.8184 6.60479 74.8184 7.504H78.8184C78.8184 7.4303 78.8228 7.37695 78.8276 7.34126C78.8324 7.3057 78.8371 7.29098 78.8365 7.2928C78.8358 7.29508 78.8296 7.31416 78.813 7.34421C78.7962 7.37487 78.7713 7.41182 78.737 7.44993L75.7638 4.77407ZM74.8184 7.504C74.8184 8.38689 75.0127 9.40233 75.723 10.2219L78.7458 7.60214C78.7817 7.64367 78.8062 7.68216 78.8217 7.71152C78.8368 7.7402 78.8413 7.75617 78.8404 7.75331C78.8394 7.75005 78.8337 7.72942 78.8283 7.68714C78.8229 7.64483 78.8184 7.58464 78.8184 7.504H74.8184ZM75.723 10.2219C76.3942 10.9964 77.3108 11.392 78.3064 11.392V7.392C78.3363 7.392 78.4207 7.39871 78.5277 7.44663C78.6364 7.4953 78.7092 7.56001 78.7458 7.60214L75.723 10.2219ZM89.9183 12L88.2597 13.1177L88.8543 14H89.9183V12ZM87.4382 8.32L89.0968 7.20229L85.4382 1.7735V8.32H87.4382ZM87.4382 12V14H89.4382V12H87.4382ZM84.3023 12H82.3023V14H84.3023V12ZM84.3023 0.16V-1.84H82.3023V0.16H84.3023ZM87.4382 0.16H89.4382V-1.84H87.4382V0.16ZM87.4382 6.544H85.4382V12.8552L89.0732 7.69591L87.4382 6.544ZM89.9183 3.024V1.024H88.8808L88.2833 1.87209L89.9183 3.024ZM93.6783 3.024L95.2524 4.25767L97.7866 1.024H93.6783V3.024ZM90.1423 7.536L88.5681 6.30233L87.5873 7.55382L88.5854 8.7915L90.1423 7.536ZM93.7422 12V14H97.9245L95.2991 10.7445L93.7422 12ZM91.5768 10.8823L89.0968 7.20229L85.7797 9.43771L88.2597 13.1177L91.5768 10.8823ZM85.4382 8.32V12H89.4382V8.32H85.4382ZM87.4382 10H84.3023V14H87.4382V10ZM86.3023 12V0.16H82.3023V12H86.3023ZM84.3023 2.16H87.4382V-1.84H84.3023V2.16ZM85.4382 0.16V6.544H89.4382V0.16H85.4382ZM89.0732 7.69591L91.5532 4.17591L88.2833 1.87209L85.8033 5.39209L89.0732 7.69591ZM89.9183 5.024H93.6783V1.024H89.9183V5.024ZM92.1041 1.79033L88.5681 6.30233L91.7164 8.76967L95.2524 4.25767L92.1041 1.79033ZM88.5854 8.7915L92.1854 13.2555L95.2991 10.7445L91.6991 6.28049L88.5854 8.7915ZM93.7422 10H89.9183V14H93.7422V10ZM96.3096 11.712L95.5031 13.5422L95.5217 13.5504L95.5404 13.5582L96.3096 11.712ZM94.8056 10.592L93.2099 11.7977L93.2249 11.8175L93.2404 11.837L94.8056 10.592ZM94.1976 8.976V6.976H92.0497L92.2027 9.11849L94.1976 8.976ZM97.2376 8.976L99.216 8.6829L98.9632 6.976H97.2376V8.976ZM98.9336 8.816L99.7311 6.98186V6.98186L98.9336 8.816ZM97.7176 8.464L98.1593 6.51337L98.1346 6.50779L98.1099 6.50284L97.7176 8.464ZM96.1176 8.032L95.4154 9.90466L96.1176 8.032ZM94.9976 7.248L93.476 8.54589L93.4868 8.55866L93.4979 8.57124L94.9976 7.248ZM94.9656 4.336L96.6233 5.45494L96.6297 5.4455L96.636 5.43598L94.9656 4.336ZM96.2296 3.296L95.4046 1.47409L95.398 1.47706L95.3915 1.48008L96.2296 3.296ZM101.03 3.776L99.728 5.29451V5.29451L101.03 3.776ZM102.198 6.048V8.048H104.438L104.185 5.82218L102.198 6.048ZM99.3656 6.048L97.3991 6.41218L97.702 8.048H99.3656V6.048ZM98.9816 5.392L97.7013 6.92844L97.7471 6.96668L97.7952 7.00211L98.9816 5.392ZM97.6056 5.296L96.4672 3.65162L96.436 3.67322L96.4056 3.696L97.6056 5.296ZM97.7816 6.192L96.9187 7.99627L96.9512 8.01179L96.9842 8.02614L97.7816 6.192ZM98.9656 6.528L98.5439 8.48305L98.5488 8.48407L98.9656 6.528ZM100.582 6.992L99.8388 8.84895L99.8467 8.85209L99.8545 8.85515L100.582 6.992ZM101.718 7.824L100.181 9.10437L100.2 9.12751L100.22 9.15007L101.718 7.824ZM101.75 10.768L100.145 9.57459L100.135 9.58801L100.125 9.60159L101.75 10.768ZM100.454 11.76L101.233 13.6019L101.241 13.5984L101.25 13.5947L100.454 11.76ZM98.4856 10.112C97.8949 10.112 97.4375 10.0153 97.0789 9.86585L95.5404 13.5582C96.4618 13.9421 97.455 14.112 98.4856 14.112V10.112ZM97.1161 9.88183C96.7395 9.71587 96.5146 9.52764 96.3708 9.34695L93.2404 11.837C93.8434 12.595 94.621 13.1535 95.5031 13.5422L97.1161 9.88183ZM96.4014 9.38633C96.2705 9.2132 96.2075 9.04344 96.1925 8.83351L92.2027 9.11849C92.273 10.1032 92.6154 11.0108 93.2099 11.7977L96.4014 9.38633ZM94.1976 10.976H97.2376V6.976H94.1976V10.976ZM95.2592 9.2691C95.3763 10.0596 95.7817 10.7801 96.4752 11.2755L98.8001 8.02053C98.9005 8.09222 99.0055 8.19803 99.0882 8.33703C99.1696 8.47381 99.2036 8.59911 99.216 8.6829L95.2592 9.2691ZM96.4752 11.2755C97.102 11.7232 97.8079 11.888 98.4696 11.888V7.888C98.4651 7.888 98.5024 7.88746 98.5679 7.90635C98.6365 7.92614 98.7187 7.96239 98.8001 8.02053L96.4752 11.2755ZM98.4696 11.888C98.9825 11.888 99.6412 11.7832 100.24 11.3555L97.9151 8.10053C98.2154 7.88609 98.4687 7.888 98.4696 7.888V11.888ZM100.24 11.3555C100.869 10.9065 101.302 10.1835 101.302 9.312H97.3016C97.3016 9.09475 97.3522 8.8419 97.4847 8.5958C97.6144 8.35484 97.782 8.19561 97.9151 8.10053L100.24 11.3555ZM101.302 9.312C101.302 8.81077 101.156 8.28643 100.816 7.82831C100.492 7.39228 100.081 7.13406 99.7311 6.98186L98.1362 10.6501C98.0314 10.6046 97.8043 10.4824 97.6034 10.2117C97.3862 9.9189 97.3016 9.58923 97.3016 9.312H101.302ZM99.7311 6.98186C99.3017 6.79517 98.7395 6.64475 98.1593 6.51337L97.276 10.4146C97.5333 10.4729 97.7357 10.5246 97.8895 10.5691C97.9658 10.5912 98.0247 10.61 98.0686 10.6251C98.0902 10.6325 98.1067 10.6386 98.1185 10.6431C98.1243 10.6453 98.1287 10.6471 98.1318 10.6483C98.1348 10.6495 98.1362 10.6502 98.1362 10.6501L99.7311 6.98186ZM98.1099 6.50284C97.5344 6.38774 97.113 6.26925 96.8199 6.15934L95.4154 9.90466C95.9756 10.1148 96.6209 10.2843 97.3254 10.4252L98.1099 6.50284ZM96.8199 6.15934C96.7188 6.12146 96.6142 6.05727 96.4973 5.92476L93.4979 8.57124C94.021 9.16406 94.6631 9.62254 95.4154 9.90466L96.8199 6.15934ZM96.5193 5.95011C96.5338 5.9671 96.5446 5.98355 96.5517 5.9966C96.5586 6.00933 96.5594 6.01401 96.5571 6.00673C96.552 5.99066 96.5336 5.92129 96.5336 5.776H92.5336C92.5336 6.726 92.7756 7.72475 93.476 8.54589L96.5193 5.95011ZM96.5336 5.776C96.5336 5.62619 96.5668 5.53868 96.6233 5.45494L93.3079 3.21705C92.7885 3.98665 92.5336 4.85914 92.5336 5.776H96.5336ZM96.636 5.43598C96.6866 5.35911 96.7945 5.23805 97.0677 5.11192L95.3915 1.48008C94.5555 1.86595 93.8207 2.43822 93.2953 3.23602L96.636 5.43598ZM97.0546 5.11791C97.3004 5.00661 97.6822 4.912 98.2616 4.912V0.912C97.2624 0.912 96.2895 1.07339 95.4046 1.47409L97.0546 5.11791ZM98.2616 4.912C99.1149 4.912 99.5224 5.11825 99.728 5.29451L102.331 2.25749C101.193 1.28175 99.755 0.912 98.2616 0.912V4.912ZM99.728 5.29451C99.989 5.5182 100.157 5.80013 100.21 6.27382L104.185 5.82218C104.025 4.41854 103.414 3.1858 102.331 2.25749L99.728 5.29451ZM102.198 4.048H99.3656V8.048H102.198V4.048ZM101.332 5.68382C101.203 4.98386 100.846 4.28128 100.168 3.78189L97.7952 7.00211C97.6764 6.91452 97.576 6.80196 97.5036 6.67836C97.4339 6.55934 97.4081 6.46095 97.3991 6.41218L101.332 5.68382ZM100.262 3.85556C99.6086 3.31108 98.8437 3.152 98.1976 3.152V7.152C98.2129 7.152 97.9706 7.15292 97.7013 6.92844L100.262 3.85556ZM98.1976 3.152C97.7324 3.152 97.0725 3.23257 96.4672 3.65162L98.744 6.94038C98.5751 7.05732 98.4226 7.10888 98.3303 7.13133C98.2403 7.15324 98.1896 7.152 98.1976 7.152V3.152ZM96.4056 3.696C95.7362 4.19809 95.4136 4.94468 95.4136 5.696H99.4136C99.4136 5.8642 99.3809 6.09137 99.2647 6.33346C99.1464 6.57986 98.9772 6.76731 98.8056 6.896L96.4056 3.696ZM95.4136 5.696C95.4136 6.90435 96.2074 7.65608 96.9187 7.99627L98.6445 4.38773C98.725 4.4262 98.9267 4.53885 99.1118 4.78831C99.316 5.06348 99.4136 5.39014 99.4136 5.696H95.4136ZM96.9842 8.02614C97.4209 8.21603 97.978 8.36098 98.544 8.48304L99.3873 4.57296C99.1435 4.52036 98.9524 4.47305 98.8076 4.43197C98.7359 4.41163 98.6809 4.3943 98.6403 4.38042C98.6202 4.37357 98.6051 4.36805 98.5944 4.36397C98.5837 4.35986 98.5788 4.35775 98.5791 4.35786L96.9842 8.02614ZM98.5488 8.48407C99.1328 8.60855 99.5531 8.73465 99.8388 8.84895L101.324 5.13505C100.757 4.90801 100.1 4.72479 99.3825 4.57193L98.5488 8.48407ZM99.8545 8.85515C99.9568 8.89507 100.063 8.96251 100.181 9.10437L103.254 6.54363C102.732 5.91749 102.081 5.43027 101.309 5.12884L99.8545 8.85515ZM100.22 9.15007C100.189 9.11426 100.182 9.08826 100.186 9.10258C100.193 9.12352 100.214 9.20114 100.214 9.36H104.214C104.214 8.37295 103.958 7.33685 103.215 6.49793L100.22 9.15007ZM100.214 9.36C100.214 9.45656 100.195 9.50664 100.145 9.57459L103.355 11.9614C103.923 11.1974 104.214 10.3088 104.214 9.36H100.214ZM100.125 9.60159C100.076 9.66948 99.959 9.79446 99.6574 9.92531L101.25 13.5947C102.079 13.2349 102.826 12.6985 103.374 11.9344L100.125 9.60159ZM99.6743 9.91807C99.4209 10.0253 99.0418 10.112 98.4856 10.112V14.112C99.4442 14.112 100.377 13.964 101.233 13.6019L99.6743 9.91807Z" fill="white"/>
</svg>
